<svg xmlns="http://www.w3.org/2000/svg" xmlns:xlink="http://www.w3.org/1999/xlink" width="1011" zoomAndPan="magnify" viewBox="0 0 758.25 545.249983" height="727" preserveAspectRatio="xMidYMid meet" version="1.0"><defs><clipPath id="d86298e3ce"><path d="M 461 0 L 617.875 0 L 617.875 211 L 461 211 Z M 461 0 " clip-rule="nonzero"/></clipPath><clipPath id="40fe10018e"><path d="M 461 0 L 617.875 0 L 617.875 212 L 461 212 Z M 461 0 " clip-rule="nonzero"/></clipPath><clipPath id="f34985e9c0"><path d="M 139.285156 232 L 177 232 L 177 266 L 139.285156 266 Z M 139.285156 232 " clip-rule="nonzero"/></clipPath></defs><path fill="#feb9a5" d="M 279.957031 93.101562 L 280.171875 102.640625 C 280.171875 105.824219 250.933594 105.824219 250.933594 102.640625 L 250.933594 93.101562 Z M 279.957031 93.101562 " fill-opacity="1" fill-rule="nonzero"/><path fill="#feb9a5" d="M 279.957031 93.101562 L 250.933594 93.101562 C 250.933594 93.101562 250.933594 91.195312 250.933594 91.195312 C 250.933594 91.195312 250.511719 91.40625 250.085938 91.40625 C 248.601562 91.617188 245.636719 90.980469 243.941406 85.257812 C 241.398438 77.414062 232.078125 64.480469 231.65625 53.667969 C 231.441406 42.855469 234.410156 11.265625 276.355469 16.355469 C 276.355469 16.355469 292.457031 21.65625 301.78125 19.324219 C 301.78125 19.324219 304.109375 26.105469 301.144531 30.558594 C 300.722656 31.195312 300.085938 31.832031 299.449219 32.253906 C 299.449219 32.253906 318.941406 86.953125 296.484375 93.3125 C 293.304688 94.375 291.1875 93.738281 279.957031 93.101562 Z M 279.957031 93.101562 " fill-opacity="1" fill-rule="nonzero"/><path fill="#15142b" d="M 301.144531 30.558594 C 300.296875 31.40625 299.660156 32.042969 299.449219 32.253906 C 299.449219 32.253906 284.832031 35.433594 289.492188 42.21875 C 293.515625 47.730469 292.246094 54.726562 287.796875 58.542969 C 284.40625 61.300781 285.46875 73.386719 285.46875 73.386719 L 282.078125 74.65625 C 278.050781 53.457031 265.339844 68.296875 266.824219 83.773438 C 267.671875 93.527344 250.511719 90.980469 250.085938 91.195312 C 248.601562 91.40625 245.636719 90.769531 243.941406 85.046875 C 241.398438 77.199219 232.078125 64.269531 231.65625 53.457031 C 231.441406 42.644531 234.410156 11.054688 276.355469 16.140625 C 276.355469 16.140625 289.070312 19.109375 301.992188 15.71875 C 304.324219 15.082031 306.441406 16.988281 306.230469 19.324219 C 305.59375 23.136719 304.535156 27.800781 301.144531 30.558594 Z M 301.144531 30.558594 " fill-opacity="1" fill-rule="nonzero"/><path fill="#eda594" d="M 279.957031 93.101562 L 279.957031 98.613281 L 262.375 93.101562 Z M 279.957031 93.101562 " fill-opacity="1" fill-rule="nonzero"/><path fill="#15142b" d="M 299.238281 46.671875 C 299.449219 47.945312 298.8125 48.792969 297.753906 49.003906 C 296.90625 49.214844 295.847656 48.367188 295.847656 47.09375 C 295.636719 45.824219 296.273438 44.761719 297.332031 44.761719 C 298.179688 44.550781 299.027344 45.398438 299.238281 46.671875 Z M 299.238281 46.671875 " fill-opacity="1" fill-rule="nonzero"/><path fill="#15142b" d="M 293.730469 43.28125 C 293.515625 43.066406 293.515625 42.855469 293.515625 42.644531 C 293.515625 42.644531 296.058594 39.039062 300.296875 41.371094 C 300.507812 41.582031 300.722656 41.796875 300.507812 42.007812 C 300.296875 42.21875 300.085938 42.429688 299.875 42.21875 C 296.484375 40.3125 294.363281 43.066406 294.363281 43.28125 C 294.363281 43.28125 293.941406 43.492188 293.730469 43.28125 Z M 293.730469 43.28125 " fill-opacity="1" fill-rule="nonzero"/><path fill="#15142b" d="M 292.246094 69.144531 C 292.246094 68.933594 292.246094 68.507812 292.671875 68.507812 C 292.882812 68.507812 293.304688 68.507812 293.304688 68.933594 C 293.304688 69.144531 294.363281 72.324219 298.601562 71.476562 C 298.8125 71.476562 299.238281 71.6875 299.238281 71.902344 C 299.238281 72.113281 299.027344 72.535156 298.8125 72.535156 C 295.425781 73.171875 292.882812 71.476562 292.246094 69.144531 Z M 292.246094 69.144531 " fill-opacity="1" fill-rule="nonzero"/><path fill="#feb9a5" d="M 303.6875 48.367188 C 303.6875 48.367188 313.855469 66.386719 304.957031 66.8125 Z M 303.6875 48.367188 " fill-opacity="1" fill-rule="nonzero"/><path fill="#a6b6f8" d="M 379.957031 215.433594 C 376.355469 215.433594 374.234375 212.464844 375.082031 208.859375 L 395.210938 131.050781 C 396.058594 127.449219 399.871094 124.480469 403.472656 124.480469 L 444.574219 124.480469 C 448.175781 124.480469 450.292969 127.449219 449.445312 131.050781 L 429.320312 208.859375 C 428.472656 212.464844 424.660156 215.433594 421.058594 215.433594 Z M 379.957031 215.433594 " fill-opacity="1" fill-rule="nonzero"/><path fill="#ccd7f6" d="M 374.234375 215.433594 C 370.632812 215.433594 368.515625 212.464844 369.363281 208.859375 L 389.488281 131.050781 C 390.335938 127.449219 394.152344 124.480469 397.753906 124.480469 L 438.851562 124.480469 C 442.453125 124.480469 444.574219 127.449219 443.726562 131.050781 L 423.597656 208.859375 C 422.753906 212.464844 418.9375 215.433594 415.335938 215.433594 Z M 374.234375 215.433594 " fill-opacity="1" fill-rule="nonzero"/><path fill="#ffffff" d="M 374.660156 213.523438 C 372.117188 213.523438 370.632812 211.402344 371.269531 208.859375 L 391.398438 131.050781 C 392.03125 128.507812 394.574219 126.386719 397.328125 126.386719 L 438.429688 126.386719 C 440.972656 126.386719 442.453125 128.507812 441.820312 131.050781 L 421.691406 208.859375 C 421.058594 211.402344 418.515625 213.523438 415.761719 213.523438 Z M 374.660156 213.523438 " fill-opacity="1" fill-rule="nonzero"/><path fill="#a6b6f8" d="M 422.730469 155.777344 C 423.089844 156.1875 423.425781 156.621094 423.734375 157.078125 C 424.042969 157.53125 424.320312 158.007812 424.574219 158.503906 C 424.824219 159 425.046875 159.511719 425.238281 160.042969 C 425.429688 160.570312 425.59375 161.117188 425.722656 161.675781 C 425.855469 162.234375 425.953125 162.808594 426.023438 163.390625 C 426.089844 163.976562 426.128906 164.566406 426.132812 165.171875 C 426.140625 165.773438 426.113281 166.382812 426.054688 166.996094 C 426 167.613281 425.910156 168.230469 425.789062 168.851562 C 425.671875 169.472656 425.519531 170.097656 425.339844 170.71875 C 425.15625 171.34375 424.945312 171.960938 424.707031 172.578125 C 424.464844 173.199219 424.195312 173.808594 423.898438 174.417969 C 423.597656 175.023438 423.273438 175.621094 422.921875 176.210938 C 422.566406 176.800781 422.191406 177.378906 421.785156 177.945312 C 421.382812 178.511719 420.957031 179.066406 420.503906 179.605469 C 420.054688 180.144531 419.582031 180.667969 419.089844 181.171875 C 418.59375 181.679688 418.082031 182.164062 417.550781 182.632812 C 417.019531 183.101562 416.472656 183.546875 415.90625 183.972656 C 415.34375 184.398438 414.765625 184.796875 414.171875 185.175781 C 413.582031 185.554688 412.976562 185.910156 412.363281 186.234375 C 411.75 186.5625 411.128906 186.867188 410.5 187.140625 C 409.871094 187.414062 409.234375 187.660156 408.597656 187.878906 C 407.957031 188.097656 407.316406 188.285156 406.671875 188.445312 C 406.03125 188.605469 405.386719 188.734375 404.746094 188.835938 C 404.105469 188.9375 403.472656 189.007812 402.839844 189.046875 C 402.207031 189.085938 401.582031 189.09375 400.964844 189.070312 C 400.347656 189.050781 399.742188 188.996094 399.144531 188.914062 C 398.550781 188.832031 397.96875 188.71875 397.398438 188.578125 C 396.828125 188.433594 396.273438 188.261719 395.734375 188.058594 C 395.199219 187.859375 394.679688 187.628906 394.179688 187.371094 C 393.675781 187.113281 393.199219 186.824219 392.738281 186.511719 C 392.28125 186.199219 391.84375 185.863281 391.433594 185.496094 C 391.019531 185.132812 390.632812 184.746094 390.269531 184.332031 C 389.910156 183.921875 389.574219 183.488281 389.265625 183.03125 C 388.957031 182.574219 388.679688 182.101562 388.425781 181.605469 C 388.175781 181.109375 387.953125 180.597656 387.761719 180.066406 C 387.570312 179.539062 387.410156 178.992188 387.277344 178.433594 C 387.144531 177.875 387.046875 177.300781 386.976562 176.71875 C 386.910156 176.132812 386.871094 175.542969 386.867188 174.9375 C 386.859375 174.335938 386.886719 173.726562 386.945312 173.113281 C 387 172.496094 387.089844 171.878906 387.210938 171.257812 C 387.328125 170.636719 387.480469 170.011719 387.660156 169.390625 C 387.84375 168.765625 388.054688 168.148438 388.292969 167.527344 C 388.535156 166.910156 388.804688 166.300781 389.101562 165.691406 C 389.402344 165.085938 389.726562 164.488281 390.078125 163.898438 C 390.433594 163.308594 390.808594 162.730469 391.214844 162.164062 C 391.617188 161.59375 392.042969 161.042969 392.496094 160.503906 C 392.945312 159.964844 393.417969 159.441406 393.910156 158.9375 C 394.40625 158.429688 394.917969 157.945312 395.449219 157.476562 C 395.980469 157.007812 396.527344 156.5625 397.09375 156.136719 C 397.65625 155.710938 398.234375 155.308594 398.828125 154.933594 C 399.417969 154.554688 400.023438 154.199219 400.636719 153.871094 C 401.25 153.542969 401.871094 153.242188 402.5 152.96875 C 403.128906 152.695312 403.765625 152.449219 404.402344 152.230469 C 405.042969 152.011719 405.683594 151.824219 406.328125 151.664062 C 406.96875 151.503906 407.613281 151.371094 408.253906 151.273438 C 408.894531 151.171875 409.53125 151.101562 410.160156 151.0625 C 410.792969 151.023438 411.417969 151.015625 412.035156 151.035156 C 412.652344 151.058594 413.257812 151.109375 413.855469 151.195312 C 414.449219 151.277344 415.035156 151.390625 415.601562 151.53125 C 416.171875 151.675781 416.726562 151.847656 417.265625 152.046875 C 417.800781 152.25 418.320312 152.480469 418.820312 152.738281 C 419.324219 152.996094 419.800781 153.28125 420.261719 153.597656 C 420.71875 153.910156 421.15625 154.246094 421.566406 154.609375 C 421.980469 154.976562 422.367188 155.363281 422.730469 155.777344 Z M 422.730469 155.777344 " fill-opacity="1" fill-rule="nonzero"/><path fill="#ffffff" d="M 413.007812 163.277344 C 412.371094 165.820312 409.828125 167.730469 407.285156 167.730469 C 404.742188 167.730469 403.261719 165.609375 403.898438 163.277344 C 404.53125 160.734375 407.074219 158.824219 409.617188 158.824219 C 412.160156 158.613281 413.640625 160.734375 413.007812 163.277344 Z M 413.007812 163.277344 " fill-opacity="1" fill-rule="nonzero"/><path fill="#ffffff" d="M 413.007812 179.8125 L 395.421875 179.8125 C 394.785156 179.8125 394.574219 179.390625 394.785156 178.753906 C 396.691406 173.878906 401.777344 170.0625 406.863281 170.0625 C 411.945312 170.0625 415.125 173.878906 414.488281 178.753906 C 414.066406 179.179688 413.429688 179.8125 413.007812 179.8125 Z M 413.007812 179.8125 " fill-opacity="1" fill-rule="nonzero"/><path fill="#feb9a5" d="M 235.679688 224.125 L 235.679688 258.257812 C 219.578125 258.257812 206.019531 252.320312 196.484375 241.085938 C 182.292969 224.546875 180.171875 200.167969 180.597656 184.902344 C 180.808594 177.695312 181.445312 172.394531 181.65625 170.910156 L 215.339844 175.996094 C 214.917969 178.542969 214.707031 182.996094 214.707031 188.292969 C 214.707031 198.683594 216.1875 211.828125 222.332031 219.035156 C 224.453125 221.367188 227.839844 224.125 235.679688 224.125 Z M 235.679688 224.125 " fill-opacity="1" fill-rule="nonzero"/><path fill="#feb9a5" d="M 421.058594 215.007812 C 396.269531 224.546875 370 227.304688 346.269531 215.21875 C 332.074219 208.011719 322.542969 196.988281 316.1875 187.023438 C 308.558594 174.9375 305.59375 164.550781 305.382812 163.703125 L 321.90625 159.460938 L 338.433594 155.007812 C 338.433594 155.007812 340.125 160.734375 343.941406 167.304688 C 347.753906 173.453125 353.472656 180.660156 361.949219 184.902344 C 374.023438 191.050781 389.703125 190.414062 408.769531 183.207031 Z M 421.058594 215.007812 " fill-opacity="1" fill-rule="nonzero"/><path fill="#f3f1fc" d="M 294.152344 497.617188 L 294.363281 511.820312 L 332.074219 511.1875 L 331.863281 497.191406 Z M 294.152344 497.617188 " fill-opacity="1" fill-rule="nonzero"/><path fill="#3a55f5" d="M 370.210938 536.414062 C 270.847656 537.476562 302.628906 537.050781 294.578125 537.261719 L 294.363281 506.523438 C 308.136719 513.304688 310.042969 502.917969 332.074219 505.886719 C 332.074219 505.886719 343.09375 520.515625 351.777344 522.210938 C 359.828125 523.90625 370.210938 528.148438 370.210938 536.414062 Z M 370.210938 536.414062 " fill-opacity="1" fill-rule="nonzero"/><path fill="#ffffff" d="M 307.5 537.050781 C 307.5 530.054688 301.992188 524.117188 294.363281 524.117188 L 294.363281 523.058594 C 302.203125 523.058594 308.558594 529.207031 308.558594 537.050781 Z M 307.5 537.050781 " fill-opacity="1" fill-rule="nonzero"/><path fill="#333333" d="M 349.449219 522.210938 C 344.363281 521.785156 336.523438 519.667969 336.101562 514.367188 C 335.675781 507.15625 348.175781 513.304688 349.871094 521.574219 C 350.085938 521.785156 349.871094 522.210938 349.449219 522.210938 Z M 338.644531 512.246094 C 338.21875 512.246094 337.160156 512.457031 337.371094 514.367188 C 337.585938 519.242188 346.269531 520.726562 348.8125 521.152344 C 347.328125 516.0625 341.398438 511.820312 338.644531 512.246094 Z M 338.644531 512.246094 " fill-opacity="1" fill-rule="nonzero"/><path fill="#333333" d="M 349.023438 521.785156 C 349.023438 521.363281 348.601562 513.519531 352.839844 512.457031 C 357.710938 511.398438 354.957031 520.300781 349.660156 522.210938 C 349.238281 522.210938 349.023438 522 349.023438 521.785156 Z M 353.050781 513.519531 C 350.296875 514.152344 350.085938 519.03125 350.085938 520.9375 C 352.839844 519.453125 354.746094 515.636719 354.320312 514.152344 C 354.109375 513.519531 353.6875 513.304688 353.050781 513.519531 Z M 353.050781 513.519531 " fill-opacity="1" fill-rule="nonzero"/><path fill="#feb9a5" d="M 293.769531 478.410156 L 331.476562 477.835938 L 331.832031 501.15625 L 294.125 501.730469 Z M 293.769531 478.410156 " fill-opacity="1" fill-rule="nonzero"/><path fill="#332f51" d="M 370.210938 536.414062 L 355.378906 536.628906 C 353.261719 532.386719 354.320312 527.085938 357.921875 523.90625 C 364.492188 526.238281 370.210938 530.265625 370.210938 536.414062 Z M 370.210938 536.414062 " fill-opacity="1" fill-rule="nonzero"/><path fill="#eda594" d="M 331.863281 491.046875 C 322.332031 495.496094 309.40625 497.617188 294.152344 497.617188 L 293.941406 482.566406 Z M 331.863281 491.046875 " fill-opacity="1" fill-rule="nonzero"/><path fill="#332f51" d="M 370.210938 536.414062 L 370.210938 539.59375 C 370.210938 541.078125 368.941406 542.5625 367.457031 542.5625 L 297.542969 543.199219 C 296.058594 543.199219 294.578125 541.925781 294.578125 540.445312 L 294.578125 537.261719 Z M 370.210938 536.414062 " fill-opacity="1" fill-rule="nonzero"/><path fill="#f3f1fc" d="M 207.078125 497.191406 L 207.078125 511.398438 L 244.789062 511.1875 L 244.789062 497.191406 Z M 207.078125 497.191406 " fill-opacity="1" fill-rule="nonzero"/><path fill="#3a55f5" d="M 282.710938 536.839844 C 183.351562 536.839844 215.128906 536.839844 207.078125 536.839844 L 207.078125 506.097656 C 220.847656 512.882812 222.757812 502.492188 244.789062 505.886719 C 244.789062 505.886719 255.59375 520.515625 264.28125 522.421875 C 272.542969 524.117188 282.925781 528.570312 282.710938 536.839844 Z M 282.710938 536.839844 " fill-opacity="1" fill-rule="nonzero"/><path fill="#ffffff" d="M 220.214844 536.839844 C 220.214844 529.632812 214.28125 523.695312 207.078125 523.695312 L 207.078125 522.632812 C 214.917969 522.632812 221.273438 528.996094 221.273438 536.839844 Z M 220.214844 536.839844 " fill-opacity="1" fill-rule="nonzero"/><path fill="#333333" d="M 262.164062 522.421875 C 257.078125 522 249.238281 519.667969 249.027344 514.367188 C 249.027344 512.457031 249.664062 511.398438 251.355469 511.1875 C 254.746094 510.761719 261.738281 515.636719 262.796875 521.574219 C 262.796875 522 262.585938 522.421875 262.164062 522.421875 Z M 251.355469 512.246094 C 250.933594 512.246094 249.875 512.457031 250.085938 514.367188 C 250.296875 519.242188 258.984375 520.9375 261.527344 521.152344 C 260.042969 516.273438 254.324219 512.035156 251.355469 512.246094 Z M 251.355469 512.246094 " fill-opacity="1" fill-rule="nonzero"/><path fill="#333333" d="M 261.738281 521.785156 C 261.738281 521.363281 261.316406 513.519531 265.765625 512.671875 C 267.035156 512.457031 267.882812 512.882812 268.09375 513.941406 C 268.730469 516.273438 266.1875 521.152344 262.375 522.421875 C 261.949219 522.421875 261.738281 522.210938 261.738281 521.785156 Z M 265.765625 513.730469 C 263.007812 514.367188 262.585938 519.242188 262.585938 521.152344 C 265.339844 519.667969 267.246094 516.0625 266.824219 514.367188 C 266.824219 513.730469 266.398438 513.519531 265.765625 513.730469 Z M 265.765625 513.730469 " fill-opacity="1" fill-rule="nonzero"/><path fill="#feb9a5" d="M 206.800781 478.238281 L 244.511719 478.007812 L 244.65625 501.332031 L 206.945312 501.558594 Z M 206.800781 478.238281 " fill-opacity="1" fill-rule="nonzero"/><path fill="#332f51" d="M 282.710938 536.839844 L 267.882812 536.839844 C 265.765625 532.386719 266.824219 527.296875 270.425781 524.117188 C 277.203125 526.449219 282.925781 530.691406 282.710938 536.839844 Z M 282.710938 536.839844 " fill-opacity="1" fill-rule="nonzero"/><path fill="#eda594" d="M 244.789062 491.046875 C 235.257812 495.496094 222.332031 497.40625 206.867188 497.40625 L 206.65625 482.351562 Z M 244.789062 491.046875 " fill-opacity="1" fill-rule="nonzero"/><path fill="#332f51" d="M 282.710938 536.839844 L 282.710938 540.019531 C 282.710938 541.503906 281.441406 542.988281 279.746094 542.988281 L 209.832031 542.988281 C 208.351562 542.988281 206.867188 541.714844 206.867188 540.230469 L 206.867188 537.050781 Z M 282.710938 536.839844 " fill-opacity="1" fill-rule="nonzero"/><path fill="#00d3bd" d="M 333.984375 491.046875 C 333.984375 493.378906 290.550781 493.378906 290.550781 491.046875 L 269.789062 358.113281 C 269.789062 357.054688 247.332031 491.046875 247.332031 491.046875 C 247.332031 493.378906 203.265625 493.378906 203.265625 491.046875 L 213.011719 283.0625 L 214.492188 256.136719 L 322.964844 256.136719 C 335.464844 524.964844 333.769531 487.230469 333.984375 491.046875 Z M 333.984375 491.046875 " fill-opacity="1" fill-rule="nonzero"/><path fill="#15142b" d="M 226.359375 484.898438 C 220.425781 484.898438 214.917969 484.683594 210.679688 484.472656 C 203.6875 484.046875 203.054688 483.414062 203.054688 482.566406 C 203.054688 482.351562 203.265625 481.929688 203.6875 481.929688 C 203.902344 481.929688 204.113281 482.140625 204.113281 482.351562 C 206.65625 484.261719 245.847656 484.261719 248.390625 482.351562 C 248.390625 482.140625 248.601562 481.929688 248.816406 481.929688 C 249.027344 481.929688 249.449219 482.140625 249.449219 482.566406 C 249.449219 484.261719 241.613281 484.898438 226.359375 484.898438 Z M 226.359375 484.898438 " fill-opacity="1" fill-rule="nonzero"/><path fill="#15142b" d="M 311.101562 484.898438 C 305.167969 484.898438 299.875 484.683594 295.636719 484.472656 C 288.644531 484.046875 288.222656 483.414062 288.222656 482.566406 C 288.222656 481.929688 289.070312 481.929688 289.28125 482.351562 C 291.824219 484.261719 330.382812 484.261719 332.921875 482.351562 C 333.136719 481.714844 333.984375 481.929688 333.984375 482.566406 C 333.984375 484.261719 326.144531 484.898438 311.101562 484.898438 Z M 311.101562 484.898438 " fill-opacity="1" fill-rule="nonzero"/><path fill="#00baa3" d="M 323.601562 267.164062 C 318.730469 273.308594 311.527344 275.429688 303.898438 277.125 C 281.230469 282.214844 257.925781 287.515625 234.621094 287.304688 C 227.417969 287.304688 220.003906 286.878906 213.011719 285.605469 L 214.492188 256.136719 L 322.964844 256.136719 Z M 323.601562 267.164062 " fill-opacity="1" fill-rule="nonzero"/><path fill="#eda594" d="M 215.339844 175.996094 C 214.917969 178.542969 214.707031 182.996094 214.707031 188.292969 C 200.085938 189.777344 188.648438 185.113281 182.292969 184.902344 C 181.65625 184.902344 181.230469 184.902344 180.597656 184.902344 C 180.808594 177.695312 181.445312 172.394531 181.65625 170.910156 Z M 215.339844 175.996094 " fill-opacity="1" fill-rule="nonzero"/><path fill="#eda594" d="M 343.941406 167.304688 C 340.761719 171.546875 334.40625 170.910156 329.957031 173.242188 C 324.238281 176.210938 321.695312 183.628906 316.1875 187.023438 C 308.558594 174.9375 305.59375 164.550781 305.382812 163.703125 L 321.90625 159.460938 L 338.433594 155.007812 C 338.433594 155.007812 339.914062 160.519531 343.941406 167.304688 Z M 343.941406 167.304688 " fill-opacity="1" fill-rule="nonzero"/><path fill="#fe674b" d="M 313.644531 177.058594 L 325.085938 266.738281 C 325.085938 275.855469 212.800781 277.339844 212.800781 268.222656 L 210.890625 178.117188 C 210.890625 181.511719 177.417969 181.085938 177.417969 177.695312 C 185.257812 136.988281 207.289062 97.976562 260.890625 99.039062 C 322.753906 100.308594 341.820312 160.945312 341.820312 160.945312 C 343.304688 163.488281 315.128906 179.601562 313.644531 177.058594 Z M 313.644531 177.058594 " fill-opacity="1" fill-rule="nonzero"/><path fill="#15142b" d="M 178.6875 169 C 178.6875 168.789062 178.902344 168.578125 179.324219 168.578125 C 179.535156 168.578125 179.75 168.789062 179.75 169.214844 C 179.75 170.0625 185.257812 171.546875 196.273438 171.546875 C 210.042969 171.757812 211.316406 169.847656 211.105469 169.847656 C 211.105469 169.636719 211.316406 169.425781 211.738281 169.425781 C 211.953125 169.425781 212.164062 169.636719 212.164062 170.0625 C 212.164062 171.121094 210.46875 171.96875 206.867188 172.394531 C 199.238281 173.03125 178.6875 172.605469 178.6875 169 Z M 178.6875 169 " fill-opacity="1" fill-rule="nonzero"/><path fill="#15142b" d="M 262.375 274.792969 C 255.59375 274.792969 212.164062 274.582031 212.164062 268.011719 C 212.164062 267.796875 212.375 267.375 212.800781 267.375 C 213.222656 267.375 213.433594 267.585938 213.433594 268.011719 C 213.433594 268.644531 214.492188 270.554688 228.054688 272.25 C 259.195312 275.644531 324.660156 272.886719 324.660156 266.738281 C 324.660156 266.527344 324.871094 266.101562 325.296875 266.101562 C 325.71875 266.101562 325.933594 266.3125 325.933594 266.738281 C 325.507812 273.097656 284.195312 274.792969 262.375 274.792969 Z M 262.375 274.792969 " fill-opacity="1" fill-rule="nonzero"/><path fill="#00baa3" d="M 269.789062 358.113281 L 259.832031 415.570312 L 263.222656 329.492188 Z M 269.789062 358.113281 " fill-opacity="1" fill-rule="nonzero"/><path fill="#15142b" d="M 269.789062 358.539062 C 269.578125 358.539062 269.367188 358.328125 269.367188 358.113281 L 263.007812 329.707031 C 263.007812 329.492188 263.222656 329.070312 263.433594 329.070312 C 263.644531 329.070312 264.070312 329.28125 264.070312 329.492188 L 270.425781 357.902344 C 270.214844 358.113281 270 358.539062 269.789062 358.539062 Z M 269.789062 358.539062 " fill-opacity="1" fill-rule="nonzero"/><path fill="#feb9a5" d="M 420.421875 215.21875 C 426.566406 212.886719 433.558594 209.917969 434.828125 209.496094 C 434.828125 209.496094 437.582031 208.648438 437.792969 206.738281 C 438.007812 205.253906 436.097656 203.558594 436.097656 203.558594 C 436.097656 203.558594 438.851562 202.074219 438.851562 200.378906 C 438.851562 198.472656 436.3125 197.410156 436.3125 197.410156 C 440.761719 193.59375 436.3125 191.050781 436.3125 191.050781 C 436.3125 191.050781 438.851562 186.808594 436.3125 184.265625 C 433.980469 181.933594 426.988281 184.265625 426.988281 184.265625 C 426.988281 184.265625 431.226562 175.785156 428.261719 171.757812 C 425.71875 168.367188 411.101562 181.511719 408.558594 182.996094 Z M 420.421875 215.21875 " fill-opacity="1" fill-rule="nonzero"/><path fill="#0d243f" d="M 432.285156 192.109375 L 436.097656 191.050781 C 436.523438 190.839844 436.945312 191.6875 436.3125 191.898438 L 432.496094 192.957031 C 432.074219 193.171875 431.863281 192.324219 432.285156 192.109375 Z M 432.285156 192.109375 " fill-opacity="1" fill-rule="nonzero"/><path fill="#0d243f" d="M 432.285156 198.472656 L 436.097656 197.410156 C 436.734375 197.199219 436.945312 198.046875 436.3125 198.257812 L 432.496094 199.320312 C 432.074219 199.53125 431.863281 198.683594 432.285156 198.472656 Z M 432.285156 198.472656 " fill-opacity="1" fill-rule="nonzero"/><path fill="#0d243f" d="M 432.285156 204.40625 L 436.097656 203.347656 C 436.3125 203.347656 436.523438 203.347656 436.523438 203.558594 C 436.523438 203.769531 436.523438 203.984375 436.3125 203.984375 L 432.496094 205.042969 C 431.863281 205.46875 431.648438 204.621094 432.285156 204.40625 Z M 432.285156 204.40625 " fill-opacity="1" fill-rule="nonzero"/><path fill="#0d243f" d="M 423.386719 184.476562 L 427.203125 183.417969 C 427.835938 183.207031 428.046875 184.054688 427.414062 184.265625 L 423.597656 185.328125 C 423.175781 185.328125 422.753906 184.691406 423.386719 184.476562 Z M 423.386719 184.476562 " fill-opacity="1" fill-rule="nonzero"/><path fill="#15142b" d="M 210.679688 178.542969 C 210.257812 178.542969 210.042969 178.328125 210.257812 177.90625 L 212.375 156.492188 C 212.375 156.28125 212.585938 156.070312 213.011719 156.070312 C 213.222656 156.070312 213.433594 156.28125 213.433594 156.703125 L 211.316406 178.117188 C 211.316406 178.328125 211.105469 178.542969 210.679688 178.542969 Z M 210.679688 178.542969 " fill-opacity="1" fill-rule="nonzero"/><path fill="#15142b" d="M 313.644531 177.480469 C 313.007812 177.480469 313.855469 178.117188 301.78125 157.554688 C 301.566406 157.339844 301.78125 156.917969 301.992188 156.917969 C 302.203125 156.703125 302.628906 156.917969 302.628906 157.128906 L 314.066406 176.847656 C 314.28125 177.058594 314.066406 177.480469 313.644531 177.480469 Z M 313.644531 177.480469 " fill-opacity="1" fill-rule="nonzero"/><path fill="#15142b" d="M 308.136719 168.578125 C 308.136719 168.367188 308.136719 167.941406 308.347656 167.941406 C 320.847656 163.066406 330.59375 157.976562 338.007812 152.253906 C 338.21875 152.039062 338.644531 152.039062 338.855469 152.253906 C 339.066406 152.464844 339.066406 152.890625 338.855469 153.101562 C 331.441406 159.035156 321.695312 164.125 308.984375 169 C 308.558594 169 308.347656 168.789062 308.136719 168.578125 Z M 308.136719 168.578125 " fill-opacity="1" fill-rule="nonzero"/><path fill="#15142b" d="M 187.585938 228.152344 C 187.375 227.941406 187.585938 227.515625 187.800781 227.515625 L 198.816406 220.308594 C 199.027344 220.097656 199.453125 220.308594 199.453125 220.519531 C 199.664062 220.730469 199.453125 221.15625 199.238281 221.15625 L 188.222656 228.363281 C 188.011719 228.363281 187.800781 228.363281 187.585938 228.152344 Z M 187.585938 228.152344 " fill-opacity="1" fill-rule="nonzero"/><path fill="#15142b" d="M 359.617188 220.945312 C 359.40625 220.945312 359.195312 220.519531 359.195312 220.308594 L 362.371094 209.070312 C 362.371094 208.859375 362.796875 208.648438 363.007812 208.648438 C 363.21875 208.648438 363.429688 209.070312 363.429688 209.285156 L 360.253906 220.519531 C 360.042969 220.730469 359.828125 220.945312 359.617188 220.945312 Z M 359.617188 220.945312 " fill-opacity="1" fill-rule="nonzero"/><path fill="#f9c21d" d="M 532.070312 543.410156 L 523.597656 543.410156 C 519.359375 535.355469 488.003906 477.050781 490.546875 468.148438 C 493.300781 458.394531 507.917969 458.394531 515.125 467.085938 C 520.417969 473.660156 526.5625 495.496094 529.53125 506.523438 C 530.589844 510.339844 531.011719 512.882812 531.011719 512.882812 Z M 532.070312 543.410156 " fill-opacity="1" fill-rule="nonzero"/><path fill="#ffffff" d="M 594.359375 447.796875 C 592.238281 455.851562 587.15625 470.054688 580.164062 484.898438 C 567.875 510.339844 551.988281 537.898438 548.808594 543.199219 L 528.046875 543.199219 C 528.046875 532.175781 529.316406 464.121094 540.121094 461.789062 C 548.171875 460.089844 549.867188 471.117188 549.65625 472.175781 C 550.503906 469.421875 566.179688 427.867188 582.496094 414.933594 C 599.441406 401.789062 600.503906 424.898438 594.359375 447.796875 Z M 594.359375 447.796875 " fill-opacity="1" fill-rule="nonzero"/><path fill="#0d243f" d="M 527.835938 543.835938 C 527.621094 543.835938 527.199219 543.625 527.199219 543.199219 C 527.410156 531.539062 528.46875 463.695312 539.699219 461.363281 C 545.207031 460.089844 548.597656 464.542969 549.65625 470.054688 C 553.046875 460.941406 567.027344 426.382812 581.859375 414.722656 C 599.65625 400.730469 601.136719 424.472656 594.78125 447.796875 C 592.453125 456.0625 587.578125 470.269531 580.585938 485.109375 C 567.875 511.398438 551.140625 540.230469 549.234375 543.410156 C 548.808594 544.257812 549.65625 543.835938 527.835938 543.835938 Z M 528.46875 542.777344 L 548.597656 542.777344 C 551.140625 538.535156 567.453125 510.339844 579.742188 484.683594 C 586.730469 470.054688 591.816406 455.851562 593.933594 447.582031 C 599.445312 426.804688 600.078125 402 582.707031 415.570312 C 565.96875 428.714844 550.292969 472.175781 550.078125 472.601562 C 550.078125 472.8125 549.65625 473.023438 549.445312 473.023438 C 549.234375 473.023438 549.019531 472.601562 549.019531 472.386719 C 549.019531 471.964844 548.597656 466.875 545.632812 464.121094 C 544.148438 462.636719 542.242188 462.210938 539.910156 462.636719 C 535.25 463.695312 531.648438 479.171875 529.742188 506.523438 C 528.683594 521.574219 528.46875 536.628906 528.46875 542.777344 Z M 594.359375 447.796875 Z M 594.359375 447.796875 " fill-opacity="1" fill-rule="nonzero"/><path fill="#ffffff" d="M 541.605469 539.382812 C 542.875 506.523438 553.046875 473.871094 578.46875 441.648438 " fill-opacity="1" fill-rule="nonzero"/><path fill="#0d243f" d="M 541.605469 540.019531 C 541.394531 540.019531 540.96875 539.808594 540.96875 539.382812 C 542.242188 503.339844 554.316406 471.328125 577.832031 441.222656 C 578.046875 441.011719 578.257812 441.011719 578.679688 441.222656 C 578.894531 441.433594 578.894531 441.648438 578.679688 442.070312 C 555.164062 471.753906 543.300781 503.765625 542.027344 539.59375 C 542.242188 539.808594 541.816406 540.019531 541.605469 540.019531 Z M 541.605469 540.019531 " fill-opacity="1" fill-rule="nonzero"/><path fill="#00d3bd" d="M 587.578125 504.191406 C 582.496094 517.96875 559.824219 538.324219 553.679688 543.410156 L 543.722656 543.410156 C 545.417969 539.171875 558.976562 507.371094 571.476562 492.105469 C 574.65625 488.289062 577.410156 485.957031 579.953125 485.109375 C 588.214844 481.714844 592.027344 491.894531 587.578125 504.191406 Z M 587.578125 504.191406 " fill-opacity="1" fill-rule="nonzero"/><path fill="#0d243f" d="M 566.605469 543.835938 L 510.460938 543.835938 C 510.25 543.835938 509.828125 543.625 509.828125 543.199219 C 509.828125 542.777344 510.039062 542.5625 510.460938 542.5625 L 566.605469 542.5625 C 566.816406 542.5625 567.242188 542.777344 567.242188 543.199219 C 567.242188 543.625 566.816406 543.835938 566.605469 543.835938 Z M 566.605469 543.835938 " fill-opacity="1" fill-rule="nonzero"/><g clip-path="url(#d86298e3ce)"><path fill="#ffffff" d="M 617.238281 10.84375 L 617.238281 200.804688 C 617.238281 206.527344 612.578125 210.980469 607.070312 210.980469 L 471.902344 210.980469 C 466.183594 210.980469 461.734375 206.316406 461.734375 200.804688 L 461.734375 10.84375 C 461.734375 5.117188 466.394531 0.664062 471.902344 0.664062 L 607.070312 0.664062 C 612.578125 0.664062 617.238281 5.328125 617.238281 10.84375 Z M 617.238281 10.84375 " fill-opacity="1" fill-rule="nonzero"/></g><g clip-path="url(#40fe10018e)"><path fill="#a6b6f8" d="M 471.902344 211.828125 C 465.972656 211.828125 461.097656 206.953125 461.097656 201.015625 L 461.097656 11.054688 C 461.097656 5.117188 465.972656 0.242188 471.902344 0.242188 L 607.070312 0.242188 C 613.003906 0.242188 617.875 5.117188 617.875 11.054688 L 617.875 201.015625 C 617.875 206.953125 613.003906 211.828125 607.070312 211.828125 Z M 606.859375 1.089844 L 471.691406 1.089844 C 466.394531 1.089844 461.945312 5.542969 461.945312 10.84375 L 461.945312 200.804688 C 461.945312 206.101562 466.394531 210.554688 471.691406 210.554688 L 606.859375 210.554688 C 612.15625 210.554688 616.605469 206.101562 616.605469 200.804688 L 616.605469 10.84375 C 616.605469 5.542969 612.367188 1.089844 606.859375 1.089844 Z M 606.859375 1.089844 " fill-opacity="1" fill-rule="nonzero"/></g><path fill="#ccd7f6" d="M 497.75 49.640625 C 490.757812 72.75 503.894531 97.128906 526.773438 103.914062 C 549.867188 110.910156 574.019531 97.765625 581.011719 74.65625 C 588.003906 51.546875 574.867188 27.378906 551.988281 20.382812 C 529.105469 13.597656 504.742188 26.53125 497.75 49.640625 Z M 503.472656 51.335938 C 509.402344 31.40625 530.378906 20.171875 550.292969 26.320312 C 570.207031 32.253906 581.433594 53.242188 575.503906 73.171875 C 569.570312 93.101562 548.597656 104.339844 528.683594 98.402344 C 508.765625 92.253906 497.539062 71.265625 503.472656 51.335938 Z M 503.472656 51.335938 " fill-opacity="1" fill-rule="nonzero"/><path fill="#ffffff" d="M 575.714844 73.171875 C 569.78125 93.101562 548.597656 104.550781 528.46875 98.613281 C 508.132812 92.464844 497.113281 70.839844 503.046875 51.335938 C 508.554688 32.253906 529.53125 19.746094 550.292969 25.894531 C 570.628906 32.042969 581.648438 53.242188 575.714844 73.171875 Z M 575.714844 73.171875 " fill-opacity="1" fill-rule="nonzero"/><path fill="#fe674b" d="M 563.851562 82.925781 C 561.945312 84.832031 559.824219 86.316406 557.496094 87.800781 C 547.75 93.738281 534.402344 94.585938 523.597656 89.074219 C 522.75 88.648438 522.113281 88.226562 521.265625 87.800781 C 518.9375 86.53125 516.816406 84.832031 514.910156 82.925781 C 515.96875 64.054688 562.792969 64.054688 563.851562 82.925781 Z M 563.851562 82.925781 " fill-opacity="1" fill-rule="nonzero"/><path fill="#ffffff" d="M 523.597656 89.074219 C 522.75 88.648438 522.113281 88.226562 521.265625 87.800781 C 521.265625 86.105469 521.691406 84.621094 522.328125 83.136719 C 523.171875 85.046875 523.597656 87.164062 523.597656 89.074219 Z M 523.597656 89.074219 " fill-opacity="1" fill-rule="nonzero"/><path fill="#ffffff" d="M 557.496094 87.800781 C 556.859375 88.226562 556.011719 88.648438 555.164062 89.074219 C 555.164062 87.164062 555.589844 85.046875 556.222656 83.136719 C 557.070312 84.621094 557.496094 86.316406 557.496094 87.800781 Z M 557.496094 87.800781 " fill-opacity="1" fill-rule="nonzero"/><path fill="#eda594" d="M 532.070312 61.511719 L 532.070312 69.992188 C 532.070312 74.019531 535.460938 77.414062 539.488281 77.414062 C 543.511719 77.414062 546.902344 74.234375 546.902344 69.992188 L 546.902344 61.511719 Z M 532.070312 61.511719 " fill-opacity="1" fill-rule="nonzero"/><path fill="#feb9a5" d="M 525.714844 54.726562 C 526.140625 57.484375 527.410156 59.390625 528.683594 59.179688 C 528.894531 59.179688 528.894531 59.179688 528.894531 59.179688 C 530.800781 65.328125 535.039062 70.417969 539.910156 70.417969 C 544.785156 70.417969 548.808594 65.328125 550.925781 59.179688 C 550.925781 59.179688 551.140625 59.179688 551.140625 59.179688 C 552.410156 59.390625 553.894531 57.273438 554.105469 54.726562 C 554.527344 51.972656 553.679688 49.851562 552.410156 49.640625 C 552.199219 49.640625 551.988281 49.640625 551.988281 49.640625 C 551.351562 41.582031 546.054688 37.132812 539.910156 37.132812 C 533.554688 37.132812 528.46875 41.582031 527.835938 49.640625 C 527.621094 49.640625 527.410156 49.640625 527.410156 49.640625 C 526.140625 49.851562 525.292969 52.183594 525.714844 54.726562 Z M 525.714844 54.726562 " fill-opacity="1" fill-rule="nonzero"/><path fill="#1d2943" d="M 552.835938 53.03125 C 550.503906 50.0625 549.65625 49.429688 549.867188 45.613281 C 541.816406 47.945312 538.425781 47.308594 533.980469 42.21875 C 533.34375 45.398438 532.707031 46.671875 530.378906 47.945312 C 530.800781 50.277344 528.257812 52.394531 527.621094 53.03125 C 525.503906 50.699219 525.082031 49.003906 524.867188 44.976562 C 524.65625 40.734375 525.503906 38.402344 529.316406 37.980469 C 529.316406 37.980469 539.910156 26.953125 549.234375 33.738281 C 558.765625 40.949219 552.835938 53.03125 552.835938 53.03125 Z M 552.835938 53.03125 " fill-opacity="1" fill-rule="nonzero"/><path fill="#ccd7f6" d="M 590.546875 122.996094 L 590.546875 134.445312 C 590.546875 136.140625 589.0625 137.625 587.367188 137.625 L 491.394531 137.625 C 489.699219 137.625 488.21875 136.140625 488.21875 134.445312 L 488.21875 122.996094 C 488.21875 121.300781 489.699219 119.816406 491.394531 119.816406 L 587.367188 119.816406 C 589.0625 119.816406 590.546875 121.300781 590.546875 122.996094 Z M 590.546875 122.996094 " fill-opacity="1" fill-rule="nonzero"/><path fill="#ccd7f6" d="M 590.546875 150.132812 L 590.546875 161.582031 C 590.546875 163.277344 589.0625 164.761719 587.367188 164.761719 L 491.394531 164.761719 C 489.699219 164.761719 488.21875 163.277344 488.21875 161.582031 L 488.21875 150.132812 C 488.21875 148.4375 489.699219 146.953125 491.394531 146.953125 L 587.367188 146.953125 C 589.0625 146.953125 590.546875 148.4375 590.546875 150.132812 Z M 590.546875 150.132812 " fill-opacity="1" fill-rule="nonzero"/><path fill="#f9c21d" d="M 568.933594 178.753906 L 568.933594 190.203125 C 568.933594 191.898438 567.453125 193.382812 565.757812 193.382812 L 513.214844 193.382812 C 511.519531 193.382812 510.039062 191.898438 510.039062 190.203125 L 510.039062 178.753906 C 510.039062 177.058594 511.519531 175.574219 513.214844 175.574219 L 565.757812 175.574219 C 567.453125 175.574219 568.933594 177.058594 568.933594 178.753906 Z M 568.933594 178.753906 " fill-opacity="1" fill-rule="nonzero"/><path fill="#ffffff" d="M 576.773438 129.144531 C 576.773438 131.6875 574.65625 133.808594 572.113281 133.808594 C 569.570312 133.808594 567.453125 131.6875 567.453125 129.144531 C 567.453125 126.597656 569.570312 124.480469 572.113281 124.480469 C 574.65625 124.480469 576.773438 126.597656 576.773438 129.144531 Z M 576.773438 129.144531 " fill-opacity="1" fill-rule="nonzero"/><path fill="#ffffff" d="M 560.460938 129.144531 C 560.460938 131.6875 558.34375 133.808594 555.800781 133.808594 C 553.257812 133.808594 551.140625 131.6875 551.140625 129.144531 C 551.140625 126.597656 553.257812 124.480469 555.800781 124.480469 C 558.34375 124.480469 560.460938 126.597656 560.460938 129.144531 Z M 560.460938 129.144531 " fill-opacity="1" fill-rule="nonzero"/><path fill="#ffffff" d="M 544.148438 129.144531 C 544.148438 131.6875 542.027344 133.808594 539.488281 133.808594 C 536.945312 133.808594 534.824219 131.6875 534.824219 129.144531 C 534.824219 126.597656 536.945312 124.480469 539.488281 124.480469 C 542.027344 124.480469 544.148438 126.597656 544.148438 129.144531 Z M 544.148438 129.144531 " fill-opacity="1" fill-rule="nonzero"/><path fill="#ffffff" d="M 527.835938 129.144531 C 527.835938 131.6875 525.714844 133.808594 523.171875 133.808594 C 520.632812 133.808594 518.511719 131.6875 518.511719 129.144531 C 518.511719 126.597656 520.632812 124.480469 523.171875 124.480469 C 525.714844 124.480469 527.835938 126.597656 527.835938 129.144531 Z M 527.835938 129.144531 " fill-opacity="1" fill-rule="nonzero"/><path fill="#ffffff" d="M 511.519531 129.144531 C 511.519531 131.6875 509.402344 133.808594 506.859375 133.808594 C 504.316406 133.808594 502.199219 131.6875 502.199219 129.144531 C 502.199219 126.597656 504.316406 124.480469 506.859375 124.480469 C 509.402344 124.480469 511.519531 126.597656 511.519531 129.144531 Z M 511.519531 129.144531 " fill-opacity="1" fill-rule="nonzero"/><path fill="#ffffff" d="M 576.773438 155.855469 C 576.773438 158.402344 574.65625 160.519531 572.113281 160.519531 C 569.570312 160.519531 567.453125 158.402344 567.453125 155.855469 C 567.453125 153.3125 569.570312 151.191406 572.113281 151.191406 C 574.65625 151.191406 576.773438 153.3125 576.773438 155.855469 Z M 576.773438 155.855469 " fill-opacity="1" fill-rule="nonzero"/><path fill="#ffffff" d="M 560.460938 155.855469 C 560.460938 158.402344 558.34375 160.519531 555.800781 160.519531 C 553.257812 160.519531 551.140625 158.402344 551.140625 155.855469 C 551.140625 153.3125 553.257812 151.191406 555.800781 151.191406 C 558.34375 151.191406 560.460938 153.3125 560.460938 155.855469 Z M 560.460938 155.855469 " fill-opacity="1" fill-rule="nonzero"/><path fill="#ffffff" d="M 544.148438 155.855469 C 544.148438 158.402344 542.027344 160.519531 539.488281 160.519531 C 536.945312 160.519531 534.824219 158.402344 534.824219 155.855469 C 534.824219 153.3125 536.945312 151.191406 539.488281 151.191406 C 542.027344 151.191406 544.148438 153.3125 544.148438 155.855469 Z M 544.148438 155.855469 " fill-opacity="1" fill-rule="nonzero"/><path fill="#ffffff" d="M 527.835938 155.855469 C 527.835938 158.402344 525.714844 160.519531 523.171875 160.519531 C 520.632812 160.519531 518.511719 158.402344 518.511719 155.855469 C 518.511719 153.3125 520.632812 151.191406 523.171875 151.191406 C 525.714844 151.191406 527.835938 153.3125 527.835938 155.855469 Z M 527.835938 155.855469 " fill-opacity="1" fill-rule="nonzero"/><path fill="#ffffff" d="M 511.519531 155.855469 C 511.519531 158.402344 509.402344 160.519531 506.859375 160.519531 C 504.316406 160.519531 502.199219 158.402344 502.199219 155.855469 C 502.199219 153.3125 504.316406 151.191406 506.859375 151.191406 C 509.402344 151.191406 511.519531 153.3125 511.519531 155.855469 Z M 511.519531 155.855469 " fill-opacity="1" fill-rule="nonzero"/><path fill="#15142b" d="M 554.953125 185.113281 L 523.808594 185.113281 C 523.597656 185.113281 523.171875 184.902344 523.171875 184.476562 C 523.171875 184.054688 523.386719 183.84375 523.808594 183.84375 L 554.953125 183.84375 C 555.164062 183.84375 555.589844 184.054688 555.589844 184.476562 C 555.589844 184.902344 555.375 185.113281 554.953125 185.113281 Z M 554.953125 185.113281 " fill-opacity="1" fill-rule="nonzero"/><path fill="#a6b6f8" d="M 341.398438 376.984375 C 341.1875 376.773438 341.1875 376.347656 341.398438 376.136719 C 341.609375 375.921875 342.035156 375.921875 342.246094 376.136719 C 346.90625 382.070312 353.898438 384.191406 359.617188 381.648438 C 364.066406 379.738281 367.878906 375.074219 372.117188 372.742188 C 376.144531 370.625 380.804688 370.199219 385.253906 371.683594 C 389.703125 373.167969 393.515625 376.558594 396.480469 381.011719 C 396.691406 381.222656 396.480469 381.648438 396.269531 381.648438 C 396.058594 381.859375 395.632812 381.648438 395.632812 381.4375 C 392.878906 376.984375 389.066406 373.804688 385.042969 372.53125 C 381.015625 371.046875 376.566406 371.472656 372.753906 373.589844 C 368.304688 375.921875 364.703125 380.375 360.042969 382.496094 C 353.472656 385.675781 346.058594 382.917969 341.398438 376.984375 Z M 341.398438 376.984375 " fill-opacity="1" fill-rule="nonzero"/><path fill="#a6b6f8" d="M 343.304688 361.292969 C 343.09375 361.082031 343.09375 360.660156 343.304688 360.445312 C 343.515625 360.234375 343.941406 360.234375 344.152344 360.445312 C 346.695312 362.992188 350.296875 364.050781 354.109375 363.414062 C 361.101562 362.144531 367.03125 355.570312 374.023438 353.664062 C 381.863281 351.332031 390.761719 354.933594 396.480469 362.777344 C 396.691406 362.992188 396.691406 363.414062 396.269531 363.414062 C 396.058594 363.625 395.632812 363.625 395.632812 363.203125 C 390.125 355.570312 381.863281 352.179688 374.449219 354.511719 C 367.246094 356.628906 361.949219 362.992188 354.320312 364.476562 C 350.085938 365.535156 346.058594 364.261719 343.304688 361.292969 Z M 343.304688 361.292969 " fill-opacity="1" fill-rule="nonzero"/><path fill="#a6b6f8" d="M 147.96875 277.125 C 147.757812 277.125 147.546875 276.703125 147.546875 276.492188 C 147.546875 276.277344 147.96875 276.066406 148.179688 276.066406 C 154.960938 277.125 160.894531 274.371094 163.222656 268.859375 C 166.191406 262.074219 163.222656 251.050781 174.453125 246.171875 C 178.265625 244.476562 183.136719 244.265625 187.800781 245.539062 C 188.011719 245.539062 188.222656 245.960938 188.222656 246.171875 C 188.222656 246.386719 187.800781 246.597656 187.585938 246.597656 C 183.136719 245.324219 178.476562 245.539062 174.875 247.234375 C 164.496094 251.898438 167.25 262.496094 164.28125 269.28125 C 161.742188 275.007812 155.386719 278.1875 147.96875 277.125 Z M 147.96875 277.125 " fill-opacity="1" fill-rule="nonzero"/><g clip-path="url(#f34985e9c0)"><path fill="#a6b6f8" d="M 139.707031 265.253906 C 139.496094 265.253906 139.285156 265.042969 139.285156 264.617188 C 139.285156 264.40625 139.496094 264.195312 139.917969 264.195312 C 143.308594 264.40625 146.273438 262.921875 148.394531 260.164062 C 152.207031 255.078125 152.417969 246.808594 155.808594 241.085938 C 159.621094 234.511719 167.882812 231.542969 176.570312 233.242188 C 176.78125 233.242188 176.996094 233.664062 176.996094 233.875 C 176.996094 234.089844 176.570312 234.300781 176.359375 234.300781 C 168.097656 232.605469 160.257812 235.359375 156.65625 241.507812 C 153.265625 247.234375 153.476562 255.078125 149.242188 260.589844 C 146.699219 263.980469 143.308594 265.679688 139.707031 265.253906 Z M 139.707031 265.253906 " fill-opacity="1" fill-rule="nonzero"/></g><path fill="#a6b6f8" d="M 421.058594 294.722656 C 417.03125 294.722656 413.640625 291.332031 413.640625 287.304688 C 413.640625 283.273438 417.03125 279.882812 421.058594 279.882812 C 425.082031 279.882812 428.472656 283.273438 428.472656 287.304688 C 428.472656 291.332031 425.082031 294.722656 421.058594 294.722656 Z M 421.058594 280.941406 C 417.667969 280.941406 414.703125 283.699219 414.703125 287.304688 C 414.703125 290.90625 417.457031 293.664062 421.058594 293.664062 C 424.660156 293.664062 427.414062 290.90625 427.414062 287.304688 C 427.414062 283.699219 424.445312 280.941406 421.058594 280.941406 Z M 421.058594 280.941406 " fill-opacity="1" fill-rule="nonzero"/><path fill="#ffffff" d="M 208.136719 63.421875 C 213.644531 76.777344 207.078125 92.253906 193.730469 97.554688 C 180.382812 103.066406 164.917969 96.492188 159.621094 83.136719 C 154.113281 69.78125 160.679688 54.304688 174.027344 49.003906 C 187.375 43.492188 202.628906 49.851562 208.136719 63.421875 Z M 208.136719 63.421875 " fill-opacity="1" fill-rule="nonzero"/><path fill="#0d243f" d="M 158.988281 83.136719 C 153.476562 69.355469 160.046875 53.878906 173.816406 48.367188 C 187.585938 42.855469 203.054688 49.429688 208.5625 63.207031 C 214.070312 76.988281 207.503906 92.464844 193.730469 97.976562 C 179.960938 103.492188 164.496094 96.917969 158.988281 83.136719 Z M 174.242188 49.429688 C 161.105469 54.726562 154.75 69.78125 160.046875 82.925781 C 165.34375 96.070312 180.382812 102.429688 193.519531 97.128906 C 206.65625 91.828125 213.011719 76.777344 207.714844 63.632812 C 202.417969 50.488281 187.375 43.914062 174.242188 49.429688 Z M 174.242188 49.429688 " fill-opacity="1" fill-rule="nonzero"/><path fill="#00d3bd" d="M 185.046875 60.027344 C 186.316406 63.207031 184.832031 66.601562 181.65625 67.871094 C 178.476562 69.144531 175.085938 67.660156 173.816406 64.480469 C 172.546875 61.300781 174.027344 57.90625 177.207031 56.636719 C 180.382812 55.574219 183.773438 57.058594 185.046875 60.027344 Z M 185.046875 60.027344 " fill-opacity="1" fill-rule="nonzero"/><path fill="#00d3bd" d="M 200.722656 79.746094 C 175.933594 89.710938 174.027344 91.617188 173.179688 88.226562 C 171.484375 80.804688 175.300781 73.171875 182.503906 70.203125 C 189.707031 67.238281 197.96875 70.203125 201.78125 76.777344 C 202.417969 77.835938 201.992188 79.109375 200.722656 79.746094 Z M 200.722656 79.746094 " fill-opacity="1" fill-rule="nonzero"/><path fill="#a6b6f8" d="M 377.203125 436.984375 C 376.992188 436.984375 376.777344 436.558594 376.777344 436.347656 C 376.777344 436.132812 377.203125 435.921875 377.414062 435.921875 C 380.167969 436.558594 382.921875 436.769531 385.675781 436.558594 C 385.886719 436.558594 386.3125 436.769531 386.3125 436.984375 C 386.3125 437.195312 386.101562 437.617188 385.886719 437.617188 C 383.132812 437.617188 380.167969 437.40625 377.203125 436.984375 Z M 393.726562 435.710938 C 393.726562 435.5 393.726562 435.074219 394.152344 435.074219 C 396.90625 434.226562 399.449219 433.167969 401.777344 431.683594 C 401.988281 431.46875 402.414062 431.683594 402.414062 431.894531 C 402.625 432.105469 402.414062 432.53125 402.203125 432.53125 C 399.871094 434.015625 397.117188 435.074219 394.363281 435.921875 C 393.9375 436.132812 393.726562 435.921875 393.726562 435.710938 Z M 369.363281 433.800781 C 367.457031 432.742188 365.761719 431.257812 364.277344 429.5625 C 364.066406 429.351562 364.066406 428.925781 364.277344 428.714844 C 364.492188 428.503906 364.914062 428.503906 365.125 428.714844 C 366.609375 430.199219 368.304688 431.683594 370 432.742188 C 370.210938 432.953125 370.421875 433.167969 370.210938 433.378906 C 369.789062 433.800781 369.574219 434.015625 369.363281 433.800781 Z M 408.34375 427.441406 C 408.132812 427.230469 408.132812 426.804688 408.34375 426.59375 C 410.253906 424.898438 412.371094 422.777344 414.066406 420.445312 C 414.277344 420.234375 414.488281 420.234375 414.914062 420.445312 C 415.125 420.65625 415.125 420.871094 414.914062 421.292969 C 413.007812 423.625 411.101562 425.746094 408.980469 427.441406 C 408.769531 427.652344 408.558594 427.652344 408.34375 427.441406 Z M 419.152344 414.507812 C 418.9375 414.296875 418.726562 414.085938 418.9375 413.875 C 420.421875 411.542969 421.691406 409.210938 423.175781 406.664062 C 423.386719 406.453125 423.597656 406.242188 423.8125 406.453125 C 424.023438 406.664062 424.234375 406.878906 424.023438 407.089844 C 422.539062 409.84375 421.269531 412.175781 419.785156 414.507812 C 419.785156 414.722656 419.363281 414.722656 419.152344 414.507812 Z M 427.203125 399.667969 C 426.988281 399.457031 426.777344 399.246094 426.988281 399.03125 C 427.203125 398.609375 428.046875 396.914062 430.378906 391.1875 C 430.589844 390.976562 430.804688 390.765625 431.015625 390.976562 C 431.226562 391.1875 431.4375 391.398438 431.226562 391.613281 C 428.472656 397.972656 428.046875 398.820312 427.835938 399.457031 C 427.835938 399.667969 427.414062 399.667969 427.203125 399.667969 Z M 513.003906 385.886719 C 510.25 385.25 507.707031 384.191406 505.164062 382.285156 C 504.953125 382.070312 504.953125 381.859375 505.164062 381.4375 C 505.378906 381.222656 505.589844 381.222656 506.011719 381.4375 C 508.34375 383.132812 510.886719 384.402344 513.429688 384.828125 C 513.640625 384.828125 513.851562 385.253906 513.851562 385.464844 C 513.640625 385.886719 513.214844 385.886719 513.003906 385.886719 Z M 521.054688 385.039062 C 521.054688 384.828125 521.054688 384.402344 521.480469 384.402344 C 524.019531 383.554688 526.351562 382.070312 528.46875 380.164062 C 528.683594 379.953125 529.105469 379.953125 529.316406 380.164062 C 529.53125 380.375 529.53125 380.800781 529.316406 381.011719 C 527.199219 383.132812 524.65625 384.617188 521.902344 385.675781 C 521.265625 385.464844 521.054688 385.25 521.054688 385.039062 Z M 433.980469 383.980469 C 433.769531 383.769531 433.558594 383.554688 433.769531 383.34375 C 435.039062 380.375 436.3125 377.832031 437.371094 375.710938 C 437.582031 375.5 437.792969 375.289062 438.007812 375.5 C 438.21875 375.710938 438.429688 375.921875 438.21875 376.136719 C 437.160156 378.46875 435.886719 380.800781 434.617188 383.769531 C 434.617188 383.980469 434.191406 384.191406 433.980469 383.980469 Z M 499.234375 376.136719 C 497.75 374.015625 496.265625 371.472656 494.785156 368.714844 C 494.574219 368.503906 494.785156 368.078125 494.996094 368.078125 C 495.207031 367.867188 495.632812 368.078125 495.632812 368.292969 C 496.902344 371.046875 498.386719 373.378906 499.871094 375.5 C 500.082031 375.710938 500.082031 376.136719 499.65625 376.136719 C 499.65625 376.347656 499.445312 376.347656 499.234375 376.136719 Z M 533.132812 374.015625 C 532.917969 373.804688 532.707031 373.589844 532.917969 373.378906 C 533.980469 370.835938 534.402344 368.078125 534.402344 365.324219 C 534.402344 365.109375 534.613281 364.6875 534.824219 364.6875 C 535.039062 364.6875 535.25 364.898438 535.460938 365.109375 C 535.460938 368.078125 535.039062 370.835938 533.980469 373.589844 C 533.765625 374.015625 533.34375 374.015625 533.132812 374.015625 Z M 441.609375 368.925781 C 441.394531 368.714844 441.183594 368.503906 441.394531 368.292969 C 443.089844 365.324219 445.210938 362.566406 446.269531 361.292969 C 446.480469 361.082031 446.691406 361.082031 447.117188 361.292969 C 447.328125 361.507812 447.328125 361.71875 447.117188 362.144531 C 446.269531 363.203125 444.785156 365.109375 442.242188 369.140625 C 442.242188 368.925781 441.820312 369.140625 441.609375 368.925781 Z M 491.605469 360.871094 C 490.546875 358.113281 489.699219 355.570312 489.0625 352.8125 C 489.0625 352.601562 489.0625 352.179688 489.488281 352.179688 C 489.699219 352.179688 490.125 352.179688 490.125 352.601562 C 490.972656 355.359375 491.820312 357.902344 492.664062 360.660156 C 492.664062 360.871094 492.664062 361.292969 492.242188 361.292969 C 492.03125 361.292969 491.605469 361.082031 491.605469 360.871094 Z M 532.496094 357.265625 C 531.4375 354.722656 530.164062 352.390625 528.257812 350.058594 C 528.046875 349.847656 528.046875 349.421875 528.257812 349.210938 C 528.46875 349 528.894531 349 529.105469 349.210938 C 531.011719 351.542969 532.496094 354.085938 533.554688 356.628906 C 533.765625 356.84375 533.554688 357.265625 533.34375 357.265625 C 532.917969 357.480469 532.707031 357.480469 532.496094 357.265625 Z M 451.988281 355.570312 C 451.777344 355.359375 451.777344 354.933594 451.988281 354.722656 C 454.105469 352.8125 456.226562 350.90625 458.554688 349.210938 C 458.769531 349 459.191406 349 459.191406 349.421875 C 459.191406 349.847656 459.402344 350.058594 458.980469 350.058594 C 456.648438 351.753906 454.53125 353.449219 452.625 355.570312 C 452.625 355.78125 452.199219 355.78125 451.988281 355.570312 Z M 465.546875 345.394531 C 465.335938 345.183594 465.546875 344.757812 465.757812 344.757812 C 468.300781 343.273438 470.84375 342.214844 473.386719 341.152344 C 473.597656 340.941406 474.023438 341.152344 474.023438 341.367188 C 474.023438 341.578125 474.023438 342 473.808594 342 C 471.269531 343.0625 468.726562 344.335938 466.183594 345.605469 C 465.972656 345.816406 465.757812 345.605469 465.546875 345.394531 Z M 486.945312 344.335938 C 486.523438 342.425781 486.097656 340.519531 485.886719 338.398438 C 484.613281 338.609375 483.132812 339.035156 481.859375 339.246094 C 481.648438 339.246094 481.226562 339.246094 481.226562 338.820312 C 481.226562 338.398438 481.226562 338.1875 481.648438 338.1875 C 482.921875 337.761719 484.402344 337.550781 485.886719 337.335938 C 485.886719 336.914062 485.675781 336.277344 485.675781 335.855469 C 485.675781 335.640625 485.886719 335.21875 486.097656 335.21875 C 486.308594 335.21875 486.734375 335.429688 486.734375 335.640625 C 486.734375 336.066406 486.945312 336.488281 486.945312 337.125 C 488.003906 336.914062 489.0625 336.703125 490.125 336.703125 C 490.335938 336.703125 490.757812 336.914062 490.757812 337.125 C 490.757812 337.335938 490.546875 337.761719 490.335938 337.761719 C 489.277344 337.972656 488.21875 337.972656 487.15625 338.1875 C 487.371094 340.09375 487.792969 342.214844 488.21875 344.121094 C 488.21875 344.335938 488.003906 344.757812 487.792969 344.757812 C 487.371094 344.96875 486.945312 344.757812 486.945312 344.335938 Z M 522.328125 344.335938 C 520.207031 342.851562 517.664062 341.578125 514.910156 340.519531 C 514.699219 340.519531 514.488281 340.09375 514.699219 339.882812 C 514.910156 339.667969 515.121094 339.457031 515.335938 339.667969 C 518.089844 340.730469 520.632812 342 522.960938 343.699219 C 523.171875 343.910156 523.171875 344.121094 523.171875 344.332031 C 522.75 344.546875 522.539062 344.546875 522.328125 344.335938 Z M 506.859375 338.1875 C 504.105469 337.761719 501.351562 337.335938 498.597656 337.335938 C 498.386719 337.335938 498.175781 337.125 498.175781 336.703125 C 498.175781 336.488281 498.386719 336.277344 498.808594 336.277344 C 501.777344 336.277344 504.53125 336.703125 507.285156 337.125 C 507.496094 337.125 507.707031 337.550781 507.707031 337.761719 C 507.496094 338.1875 507.074219 338.398438 506.859375 338.1875 Z M 485.25 328.007812 C 485.039062 328.007812 484.828125 327.796875 484.828125 327.585938 C 484.613281 324.828125 484.613281 321.859375 484.402344 319.105469 C 484.402344 318.894531 484.617188 318.46875 484.828125 318.46875 C 485.039062 318.46875 485.25 318.679688 485.460938 318.894531 C 485.460938 321.648438 485.675781 324.617188 485.886719 327.375 C 485.675781 327.796875 485.460938 328.007812 485.25 328.007812 Z M 485.039062 311.046875 C 484.617188 311.046875 484.402344 310.835938 484.402344 310.414062 C 484.617188 307.65625 484.828125 304.6875 485.25 301.933594 C 485.25 301.71875 485.460938 301.507812 485.886719 301.507812 C 486.097656 301.507812 486.308594 301.71875 486.308594 302.144531 C 485.886719 304.898438 485.675781 307.65625 485.460938 310.625 C 485.460938 310.835938 485.25 311.046875 485.039062 311.046875 Z M 486.945312 294.300781 C 486.734375 294.300781 486.523438 293.875 486.523438 293.664062 C 486.945312 290.90625 487.582031 288.152344 488.429688 285.394531 C 488.429688 285.183594 488.851562 284.972656 489.0625 284.972656 C 489.277344 284.972656 489.488281 285.394531 489.488281 285.605469 C 488.851562 288.363281 488.21875 291.121094 487.582031 293.875 C 487.582031 294.085938 487.371094 294.300781 486.945312 294.300781 Z M 491.183594 277.761719 C 490.972656 277.761719 490.757812 277.339844 490.757812 277.125 C 491.605469 274.371094 492.664062 271.828125 493.726562 269.070312 C 493.9375 268.859375 494.148438 268.644531 494.359375 268.859375 C 494.574219 269.070312 494.785156 269.28125 494.574219 269.496094 C 493.511719 272.039062 492.664062 274.792969 491.605469 277.339844 C 491.605469 277.761719 491.394531 277.976562 491.183594 277.761719 Z M 497.328125 262.074219 C 497.113281 261.863281 496.902344 261.648438 497.113281 261.4375 C 498.386719 258.894531 499.65625 256.351562 501.140625 253.804688 C 501.351562 253.59375 501.5625 253.382812 501.777344 253.59375 C 501.988281 253.804688 502.199219 254.019531 501.988281 254.230469 C 500.714844 256.5625 499.234375 259.105469 498.175781 261.648438 C 497.960938 262.074219 497.539062 262.285156 497.328125 262.074219 Z M 505.589844 247.234375 C 505.378906 247.019531 505.378906 246.808594 505.378906 246.597656 C 506.859375 244.265625 508.554688 241.933594 510.25 239.601562 C 510.460938 239.390625 510.675781 239.390625 511.097656 239.601562 C 511.308594 239.8125 511.308594 240.023438 511.097656 240.449219 C 509.402344 242.570312 507.707031 244.902344 506.226562 247.234375 C 506.226562 247.445312 505.800781 247.445312 505.589844 247.234375 Z M 505.589844 247.234375 " fill-opacity="1" fill-rule="nonzero"/><path fill="#a6b6f8" d="M 347.328125 111.546875 C 347.117188 111.335938 347.117188 110.910156 347.328125 110.699219 L 355.804688 102.21875 C 356.015625 102.007812 356.441406 102.007812 356.652344 102.21875 C 356.863281 102.429688 356.863281 102.855469 356.652344 103.066406 L 348.175781 111.546875 C 347.964844 111.757812 347.542969 111.757812 347.328125 111.546875 Z M 347.328125 111.546875 " fill-opacity="1" fill-rule="nonzero"/><path fill="#a6b6f8" d="M 355.804688 111.546875 L 347.328125 103.066406 C 347.117188 102.855469 347.117188 102.429688 347.328125 102.21875 C 347.542969 102.007812 347.964844 102.007812 348.175781 102.21875 L 356.652344 110.699219 C 356.863281 110.910156 356.863281 111.335938 356.652344 111.546875 C 356.441406 111.757812 356.015625 111.757812 355.804688 111.546875 Z M 355.804688 111.546875 " fill-opacity="1" fill-rule="nonzero"/><path fill="#15142b" d="M 272.121094 73.808594 C 271.90625 73.808594 271.695312 73.597656 271.695312 73.386719 C 271.058594 68.507812 275.085938 67.023438 275.085938 67.023438 C 275.296875 66.8125 275.722656 67.023438 275.722656 67.238281 C 275.722656 67.449219 275.722656 67.871094 275.507812 67.871094 C 275.296875 67.871094 272.332031 69.144531 272.753906 73.171875 C 272.542969 73.386719 272.332031 73.808594 272.121094 73.808594 Z M 272.121094 73.808594 " fill-opacity="1" fill-rule="nonzero"/><path fill="#15142b" d="M 272.332031 70.417969 C 272.121094 70.203125 271.90625 69.992188 272.121094 69.78125 C 272.332031 69.570312 272.542969 69.355469 272.753906 69.570312 C 274.238281 70.203125 275.296875 70.839844 276.570312 70.628906 C 276.992188 70.628906 277.203125 70.839844 277.203125 71.054688 C 277.203125 71.265625 276.992188 71.6875 276.78125 71.6875 C 275.296875 71.6875 273.816406 71.054688 272.332031 70.417969 Z M 272.332031 70.417969 " fill-opacity="1" fill-rule="nonzero"/></svg>