<svg xmlns="http://www.w3.org/2000/svg" xmlns:xlink="http://www.w3.org/1999/xlink" width="120" zoomAndPan="magnify" viewBox="0 0 90 52.499999" height="70" preserveAspectRatio="xMidYMid meet" version="1.0"><defs><g/></defs><path stroke-linecap="butt" transform="matrix(0.742924, 0, 0, 0.742924, 9.7144, 28.82605)" fill="none" stroke-linejoin="miter" d="M 0.000597018 2.500313 L 42.915878 2.500313 " stroke="#000000" stroke-width="5" stroke-opacity="1" stroke-miterlimit="4"/><g fill="#000000" fill-opacity="1"><g transform="translate(8.642464, 26.145242)"><g><path d="M 2.890625 -7.1875 L 0.046875 -7.1875 L 0.046875 -9.265625 L 8.34375 -9.265625 L 8.34375 -7.1875 L 5.515625 -7.1875 L 5.515625 0 L 2.890625 0 Z M 2.890625 -7.1875 "/></g></g></g><g fill="#000000" fill-opacity="1"><g transform="translate(18.197837, 26.145242)"><g><path d="M 5.59375 0.1875 C 4.613281 0.1875 3.734375 -0.0195312 2.953125 -0.4375 C 2.171875 -0.851562 1.554688 -1.425781 1.109375 -2.15625 C 0.671875 -2.882812 0.453125 -3.707031 0.453125 -4.625 C 0.453125 -5.550781 0.671875 -6.378906 1.109375 -7.109375 C 1.554688 -7.835938 2.171875 -8.410156 2.953125 -8.828125 C 3.734375 -9.242188 4.613281 -9.453125 5.59375 -9.453125 C 6.570312 -9.453125 7.453125 -9.242188 8.234375 -8.828125 C 9.015625 -8.410156 9.628906 -7.835938 10.078125 -7.109375 C 10.523438 -6.378906 10.75 -5.550781 10.75 -4.625 C 10.75 -3.707031 10.523438 -2.882812 10.078125 -2.15625 C 9.628906 -1.425781 9.015625 -0.851562 8.234375 -0.4375 C 7.453125 -0.0195312 6.570312 0.1875 5.59375 0.1875 Z M 5.59375 -1.984375 C 6.0625 -1.984375 6.484375 -2.09375 6.859375 -2.3125 C 7.242188 -2.53125 7.546875 -2.835938 7.765625 -3.234375 C 7.984375 -3.640625 8.09375 -4.101562 8.09375 -4.625 C 8.09375 -5.144531 7.984375 -5.609375 7.765625 -6.015625 C 7.546875 -6.421875 7.242188 -6.734375 6.859375 -6.953125 C 6.484375 -7.171875 6.0625 -7.28125 5.59375 -7.28125 C 5.125 -7.28125 4.703125 -7.171875 4.328125 -6.953125 C 3.953125 -6.734375 3.648438 -6.421875 3.421875 -6.015625 C 3.203125 -5.609375 3.09375 -5.144531 3.09375 -4.625 C 3.09375 -4.101562 3.203125 -3.640625 3.421875 -3.234375 C 3.648438 -2.835938 3.953125 -2.53125 4.328125 -2.3125 C 4.703125 -2.09375 5.125 -1.984375 5.59375 -1.984375 Z M 5.59375 -1.984375 "/></g></g></g><g fill="#000000" fill-opacity="1"><g transform="translate(30.54567, 26.145242)"><g><path d="M 0.921875 -9.265625 L 5.3125 -9.265625 C 6.320312 -9.265625 7.21875 -9.070312 8 -8.6875 C 8.789062 -8.3125 9.398438 -7.773438 9.828125 -7.078125 C 10.265625 -6.378906 10.484375 -5.5625 10.484375 -4.625 C 10.484375 -3.695312 10.265625 -2.882812 9.828125 -2.1875 C 9.398438 -1.488281 8.789062 -0.945312 8 -0.5625 C 7.21875 -0.1875 6.320312 0 5.3125 0 L 0.921875 0 Z M 5.203125 -2.09375 C 5.992188 -2.09375 6.628906 -2.316406 7.109375 -2.765625 C 7.585938 -3.210938 7.828125 -3.832031 7.828125 -4.625 C 7.828125 -5.425781 7.585938 -6.050781 7.109375 -6.5 C 6.628906 -6.945312 5.992188 -7.171875 5.203125 -7.171875 L 3.546875 -7.171875 L 3.546875 -2.09375 Z M 5.203125 -2.09375 "/></g></g></g><g fill="#000000" fill-opacity="1"><g transform="translate(42.628818, 26.145242)"><g><path d="M 5.59375 0.1875 C 4.613281 0.1875 3.734375 -0.0195312 2.953125 -0.4375 C 2.171875 -0.851562 1.554688 -1.425781 1.109375 -2.15625 C 0.671875 -2.882812 0.453125 -3.707031 0.453125 -4.625 C 0.453125 -5.550781 0.671875 -6.378906 1.109375 -7.109375 C 1.554688 -7.835938 2.171875 -8.410156 2.953125 -8.828125 C 3.734375 -9.242188 4.613281 -9.453125 5.59375 -9.453125 C 6.570312 -9.453125 7.453125 -9.242188 8.234375 -8.828125 C 9.015625 -8.410156 9.628906 -7.835938 10.078125 -7.109375 C 10.523438 -6.378906 10.75 -5.550781 10.75 -4.625 C 10.75 -3.707031 10.523438 -2.882812 10.078125 -2.15625 C 9.628906 -1.425781 9.015625 -0.851562 8.234375 -0.4375 C 7.453125 -0.0195312 6.570312 0.1875 5.59375 0.1875 Z M 5.59375 -1.984375 C 6.0625 -1.984375 6.484375 -2.09375 6.859375 -2.3125 C 7.242188 -2.53125 7.546875 -2.835938 7.765625 -3.234375 C 7.984375 -3.640625 8.09375 -4.101562 8.09375 -4.625 C 8.09375 -5.144531 7.984375 -5.609375 7.765625 -6.015625 C 7.546875 -6.421875 7.242188 -6.734375 6.859375 -6.953125 C 6.484375 -7.171875 6.0625 -7.28125 5.59375 -7.28125 C 5.125 -7.28125 4.703125 -7.171875 4.328125 -6.953125 C 3.953125 -6.734375 3.648438 -6.421875 3.421875 -6.015625 C 3.203125 -5.609375 3.09375 -5.144531 3.09375 -4.625 C 3.09375 -4.101562 3.203125 -3.640625 3.421875 -3.234375 C 3.648438 -2.835938 3.953125 -2.53125 4.328125 -2.3125 C 4.703125 -2.09375 5.125 -1.984375 5.59375 -1.984375 Z M 5.59375 -1.984375 "/></g></g></g><g fill="#000000" fill-opacity="1"><g transform="translate(54.976652, 26.145242)"><g><path d="M 0.921875 -9.265625 L 3.546875 -9.265625 L 3.546875 0 L 0.921875 0 Z M 0.921875 -9.265625 "/></g></g></g><g fill="#000000" fill-opacity="1"><g transform="translate(60.614638, 26.145242)"><g><path d="M 4.1875 0.1875 C 3.4375 0.1875 2.707031 0.09375 2 -0.09375 C 1.289062 -0.28125 0.71875 -0.523438 0.28125 -0.828125 L 1.140625 -2.765625 C 1.554688 -2.492188 2.035156 -2.273438 2.578125 -2.109375 C 3.128906 -1.941406 3.664062 -1.859375 4.1875 -1.859375 C 5.195312 -1.859375 5.703125 -2.109375 5.703125 -2.609375 C 5.703125 -2.867188 5.554688 -3.0625 5.265625 -3.1875 C 4.984375 -3.320312 4.523438 -3.457031 3.890625 -3.59375 C 3.191406 -3.75 2.609375 -3.910156 2.140625 -4.078125 C 1.671875 -4.253906 1.269531 -4.53125 0.9375 -4.90625 C 0.601562 -5.289062 0.4375 -5.800781 0.4375 -6.4375 C 0.4375 -7.007812 0.585938 -7.519531 0.890625 -7.96875 C 1.203125 -8.425781 1.664062 -8.785156 2.28125 -9.046875 C 2.894531 -9.316406 3.648438 -9.453125 4.546875 -9.453125 C 5.148438 -9.453125 5.742188 -9.382812 6.328125 -9.25 C 6.921875 -9.113281 7.445312 -8.910156 7.90625 -8.640625 L 7.09375 -6.703125 C 6.207031 -7.171875 5.351562 -7.40625 4.53125 -7.40625 C 4.007812 -7.40625 3.628906 -7.328125 3.390625 -7.171875 C 3.148438 -7.023438 3.03125 -6.828125 3.03125 -6.578125 C 3.03125 -6.328125 3.171875 -6.140625 3.453125 -6.015625 C 3.734375 -5.898438 4.1875 -5.773438 4.8125 -5.640625 C 5.519531 -5.484375 6.101562 -5.316406 6.5625 -5.140625 C 7.03125 -4.972656 7.429688 -4.703125 7.765625 -4.328125 C 8.109375 -3.953125 8.28125 -3.445312 8.28125 -2.8125 C 8.28125 -2.25 8.125 -1.742188 7.8125 -1.296875 C 7.507812 -0.847656 7.046875 -0.488281 6.421875 -0.21875 C 5.804688 0.0507812 5.0625 0.1875 4.1875 0.1875 Z M 4.1875 0.1875 "/></g></g></g><g fill="#000000" fill-opacity="1"><g transform="translate(70.328826, 26.145242)"><g><path d="M 2.890625 -7.1875 L 0.046875 -7.1875 L 0.046875 -9.265625 L 8.34375 -9.265625 L 8.34375 -7.1875 L 5.515625 -7.1875 L 5.515625 0 L 2.890625 0 Z M 2.890625 -7.1875 "/></g></g></g><g fill="#000000" fill-opacity="1"><g transform="translate(43.257307, 32.236544)"><g><path d="M 2.359375 -0.328125 L 2.359375 0 L 0.40625 0 L 0.40625 -2.6875 L 2.296875 -2.6875 L 2.296875 -2.359375 L 0.78125 -2.359375 L 0.78125 -1.53125 L 2.140625 -1.53125 L 2.140625 -1.203125 L 0.78125 -1.203125 L 0.78125 -0.328125 Z M 2.359375 -0.328125 "/></g></g></g><g fill="#000000" fill-opacity="1"><g transform="translate(46.196116, 32.236544)"><g><path d="M 2.125 -0.671875 L 0.6875 -0.671875 L 0.390625 0 L 0 0 L 1.21875 -2.6875 L 1.59375 -2.6875 L 2.8125 0 L 2.40625 0 Z M 1.984375 -0.984375 L 1.40625 -2.296875 L 0.828125 -0.984375 Z M 1.984375 -0.984375 "/></g></g></g><g fill="#000000" fill-opacity="1"><g transform="translate(49.373411, 32.236544)"><g><path d="M 0.9375 -2.359375 L 0.015625 -2.359375 L 0.015625 -2.6875 L 2.234375 -2.6875 L 2.234375 -2.359375 L 1.3125 -2.359375 L 1.3125 0 L 0.9375 0 Z M 0.9375 -2.359375 "/></g></g></g><g fill="#000000" fill-opacity="1"><g transform="translate(51.992955, 32.236544)"><g/></g></g><g fill="#000000" fill-opacity="1"><g transform="translate(53.38929, 32.236544)"><g><path d="M 0.9375 -2.359375 L 0.015625 -2.359375 L 0.015625 -2.6875 L 2.234375 -2.6875 L 2.234375 -2.359375 L 1.3125 -2.359375 L 1.3125 0 L 0.9375 0 Z M 0.9375 -2.359375 "/></g></g></g><g fill="#000000" fill-opacity="1"><g transform="translate(56.008832, 32.236544)"><g><path d="M 2.71875 -2.6875 L 2.71875 0 L 2.328125 0 L 2.328125 -1.203125 L 0.78125 -1.203125 L 0.78125 0 L 0.40625 0 L 0.40625 -2.6875 L 0.78125 -2.6875 L 0.78125 -1.53125 L 2.328125 -1.53125 L 2.328125 -2.6875 Z M 2.71875 -2.6875 "/></g></g></g><g fill="#000000" fill-opacity="1"><g transform="translate(59.493852, 32.236544)"><g><path d="M 2.125 -0.671875 L 0.6875 -0.671875 L 0.390625 0 L 0 0 L 1.21875 -2.6875 L 1.59375 -2.6875 L 2.8125 0 L 2.40625 0 Z M 1.984375 -0.984375 L 1.40625 -2.296875 L 0.828125 -0.984375 Z M 1.984375 -0.984375 "/></g></g></g><g fill="#000000" fill-opacity="1"><g transform="translate(62.671146, 32.236544)"><g><path d="M 0.9375 -2.359375 L 0.015625 -2.359375 L 0.015625 -2.6875 L 2.234375 -2.6875 L 2.234375 -2.359375 L 1.3125 -2.359375 L 1.3125 0 L 0.9375 0 Z M 0.9375 -2.359375 "/></g></g></g><g fill="#000000" fill-opacity="1"><g transform="translate(65.290689, 32.236544)"><g/></g></g><g fill="#000000" fill-opacity="1"><g transform="translate(66.687024, 32.236544)"><g><path d="M 0.78125 -2.359375 L 0.78125 -1.421875 L 2.140625 -1.421875 L 2.140625 -1.09375 L 0.78125 -1.09375 L 0.78125 0 L 0.40625 0 L 0.40625 -2.6875 L 2.296875 -2.6875 L 2.296875 -2.359375 Z M 0.78125 -2.359375 "/></g></g></g><g fill="#000000" fill-opacity="1"><g transform="translate(69.491203, 32.236544)"><g><path d="M 2.203125 0 L 1.625 -0.828125 C 1.550781 -0.816406 1.492188 -0.8125 1.453125 -0.8125 L 0.78125 -0.8125 L 0.78125 0 L 0.40625 0 L 0.40625 -2.6875 L 1.453125 -2.6875 C 1.796875 -2.6875 2.066406 -2.601562 2.265625 -2.4375 C 2.472656 -2.269531 2.578125 -2.039062 2.578125 -1.75 C 2.578125 -1.539062 2.523438 -1.363281 2.421875 -1.21875 C 2.316406 -1.070312 2.171875 -0.96875 1.984375 -0.90625 L 2.625 0 Z M 1.4375 -1.140625 C 1.6875 -1.140625 1.875 -1.191406 2 -1.296875 C 2.125 -1.398438 2.1875 -1.550781 2.1875 -1.75 C 2.1875 -1.945312 2.125 -2.097656 2 -2.203125 C 1.875 -2.304688 1.6875 -2.359375 1.4375 -2.359375 L 0.78125 -2.359375 L 0.78125 -1.140625 Z M 1.4375 -1.140625 "/></g></g></g><g fill="#000000" fill-opacity="1"><g transform="translate(72.649265, 32.236544)"><g><path d="M 1.625 0.03125 C 1.34375 0.03125 1.09375 -0.0234375 0.875 -0.140625 C 0.664062 -0.265625 0.5 -0.429688 0.375 -0.640625 C 0.25 -0.847656 0.1875 -1.082031 0.1875 -1.34375 C 0.1875 -1.601562 0.25 -1.835938 0.375 -2.046875 C 0.5 -2.253906 0.664062 -2.414062 0.875 -2.53125 C 1.09375 -2.65625 1.34375 -2.71875 1.625 -2.71875 C 1.882812 -2.71875 2.125 -2.65625 2.34375 -2.53125 C 2.5625 -2.414062 2.734375 -2.253906 2.859375 -2.046875 C 2.984375 -1.835938 3.046875 -1.601562 3.046875 -1.34375 C 3.046875 -1.082031 2.984375 -0.847656 2.859375 -0.640625 C 2.734375 -0.429688 2.5625 -0.265625 2.34375 -0.140625 C 2.125 -0.0234375 1.882812 0.03125 1.625 0.03125 Z M 1.625 -0.3125 C 1.820312 -0.3125 2 -0.351562 2.15625 -0.4375 C 2.3125 -0.53125 2.429688 -0.65625 2.515625 -0.8125 C 2.609375 -0.96875 2.65625 -1.144531 2.65625 -1.34375 C 2.65625 -1.539062 2.609375 -1.71875 2.515625 -1.875 C 2.429688 -2.03125 2.3125 -2.148438 2.15625 -2.234375 C 2 -2.328125 1.820312 -2.375 1.625 -2.375 C 1.425781 -2.375 1.242188 -2.328125 1.078125 -2.234375 C 0.921875 -2.148438 0.796875 -2.03125 0.703125 -1.875 C 0.609375 -1.71875 0.5625 -1.539062 0.5625 -1.34375 C 0.5625 -1.144531 0.609375 -0.96875 0.703125 -0.8125 C 0.796875 -0.65625 0.921875 -0.53125 1.078125 -0.4375 C 1.242188 -0.351562 1.425781 -0.3125 1.625 -0.3125 Z M 1.625 -0.3125 "/></g></g></g><g fill="#000000" fill-opacity="1"><g transform="translate(76.241992, 32.236544)"><g><path d="M 2.265625 -1.359375 L 2.640625 -1.359375 L 2.640625 -0.3125 C 2.503906 -0.195312 2.347656 -0.109375 2.171875 -0.046875 C 1.992188 0.00390625 1.8125 0.03125 1.625 0.03125 C 1.34375 0.03125 1.09375 -0.0234375 0.875 -0.140625 C 0.664062 -0.265625 0.5 -0.429688 0.375 -0.640625 C 0.25 -0.847656 0.1875 -1.082031 0.1875 -1.34375 C 0.1875 -1.601562 0.25 -1.835938 0.375 -2.046875 C 0.5 -2.265625 0.671875 -2.429688 0.890625 -2.546875 C 1.109375 -2.660156 1.351562 -2.71875 1.625 -2.71875 C 1.84375 -2.71875 2.035156 -2.679688 2.203125 -2.609375 C 2.378906 -2.546875 2.53125 -2.445312 2.65625 -2.3125 L 2.421875 -2.0625 C 2.203125 -2.269531 1.941406 -2.375 1.640625 -2.375 C 1.429688 -2.375 1.242188 -2.328125 1.078125 -2.234375 C 0.921875 -2.148438 0.796875 -2.03125 0.703125 -1.875 C 0.609375 -1.71875 0.5625 -1.539062 0.5625 -1.34375 C 0.5625 -1.144531 0.609375 -0.96875 0.703125 -0.8125 C 0.796875 -0.65625 0.921875 -0.53125 1.078125 -0.4375 C 1.242188 -0.351562 1.429688 -0.3125 1.640625 -0.3125 C 1.878906 -0.3125 2.085938 -0.367188 2.265625 -0.484375 Z M 2.265625 -1.359375 "/></g></g></g></svg>