<svg xmlns="http://www.w3.org/2000/svg" xmlns:xlink="http://www.w3.org/1999/xlink" width="1011" zoomAndPan="magnify" viewBox="0 0 758.25 545.249983" height="727" preserveAspectRatio="xMidYMid meet" version="1.0"><defs><clipPath id="5d65813236"><path d="M 140.65625 525 L 324 525 L 324 538 L 140.65625 538 Z M 140.65625 525 " clip-rule="nonzero"/></clipPath><clipPath id="6e0e335304"><path d="M 140.65625 273 L 324 273 L 324 286 L 140.65625 286 Z M 140.65625 273 " clip-rule="nonzero"/></clipPath><clipPath id="d081f64dd7"><path d="M 504 510 L 533 510 L 533 544.5 L 504 544.5 Z M 504 510 " clip-rule="nonzero"/></clipPath><clipPath id="512b2c8a69"><path d="M 443 520 L 478 520 L 478 544.5 L 443 544.5 Z M 443 520 " clip-rule="nonzero"/></clipPath></defs><path fill="#ffffff" d="M 228.902344 45.894531 L 533.890625 45.894531 C 538.210938 45.894531 541.769531 49.453125 541.769531 53.777344 L 541.769531 452.585938 C 541.769531 456.90625 538.210938 460.46875 533.890625 460.46875 L 228.902344 460.46875 C 224.578125 460.46875 221.019531 456.90625 221.019531 452.585938 L 221.019531 53.777344 C 221.019531 49.328125 224.578125 45.894531 228.902344 45.894531 Z M 228.902344 45.894531 " fill-opacity="1" fill-rule="nonzero"/><path fill="#00d3bd" d="M 311.15625 124.207031 C 311.15625 124.953125 311.121094 125.695312 311.046875 126.4375 C 310.972656 127.179688 310.863281 127.914062 310.71875 128.644531 C 310.574219 129.378906 310.390625 130.097656 310.175781 130.8125 C 309.960938 131.527344 309.710938 132.226562 309.421875 132.914062 C 309.136719 133.605469 308.820312 134.277344 308.46875 134.933594 C 308.117188 135.589844 307.734375 136.230469 307.320312 136.847656 C 306.90625 137.46875 306.464844 138.066406 305.992188 138.644531 C 305.519531 139.21875 305.019531 139.769531 304.492188 140.296875 C 303.964844 140.824219 303.414062 141.324219 302.835938 141.796875 C 302.261719 142.269531 301.660156 142.714844 301.042969 143.128906 C 300.421875 143.542969 299.785156 143.925781 299.125 144.277344 C 298.46875 144.628906 297.796875 144.945312 297.109375 145.230469 C 296.417969 145.515625 295.71875 145.765625 295.003906 145.984375 C 294.292969 146.199219 293.570312 146.378906 292.839844 146.527344 C 292.109375 146.671875 291.371094 146.78125 290.628906 146.855469 C 289.886719 146.925781 289.144531 146.964844 288.398438 146.964844 C 287.65625 146.964844 286.910156 146.925781 286.167969 146.855469 C 285.425781 146.78125 284.691406 146.671875 283.960938 146.527344 C 283.230469 146.378906 282.507812 146.199219 281.792969 145.984375 C 281.082031 145.765625 280.378906 145.515625 279.691406 145.230469 C 279.003906 144.945312 278.328125 144.628906 277.671875 144.277344 C 277.015625 143.925781 276.375 143.542969 275.757812 143.128906 C 275.136719 142.714844 274.539062 142.269531 273.964844 141.796875 C 273.386719 141.324219 272.835938 140.824219 272.308594 140.296875 C 271.78125 139.769531 271.28125 139.21875 270.808594 138.644531 C 270.335938 138.066406 269.890625 137.46875 269.476562 136.847656 C 269.0625 136.230469 268.679688 135.589844 268.332031 134.933594 C 267.980469 134.277344 267.660156 133.605469 267.375 132.914062 C 267.089844 132.226562 266.839844 131.527344 266.625 130.8125 C 266.40625 130.097656 266.226562 129.378906 266.082031 128.644531 C 265.933594 127.914062 265.824219 127.179688 265.753906 126.4375 C 265.679688 125.695312 265.644531 124.953125 265.644531 124.207031 C 265.644531 123.460938 265.679688 122.71875 265.753906 121.976562 C 265.824219 121.234375 265.933594 120.5 266.082031 119.765625 C 266.226562 119.035156 266.40625 118.3125 266.625 117.601562 C 266.839844 116.886719 267.089844 116.1875 267.375 115.5 C 267.660156 114.808594 267.980469 114.136719 268.332031 113.480469 C 268.679688 112.820312 269.0625 112.183594 269.476562 111.5625 C 269.890625 110.945312 270.335938 110.347656 270.808594 109.769531 C 271.28125 109.195312 271.78125 108.640625 272.308594 108.117188 C 272.835938 107.589844 273.386719 107.089844 273.964844 106.617188 C 274.539062 106.144531 275.136719 105.699219 275.757812 105.285156 C 276.375 104.871094 277.015625 104.488281 277.671875 104.136719 C 278.328125 103.785156 279.003906 103.46875 279.691406 103.183594 C 280.378906 102.898438 281.082031 102.648438 281.792969 102.429688 C 282.507812 102.214844 283.230469 102.03125 283.960938 101.886719 C 284.691406 101.742188 285.425781 101.632812 286.167969 101.558594 C 286.910156 101.488281 287.65625 101.449219 288.398438 101.449219 C 289.144531 101.449219 289.886719 101.488281 290.628906 101.558594 C 291.371094 101.632812 292.109375 101.742188 292.839844 101.886719 C 293.570312 102.03125 294.292969 102.214844 295.003906 102.429688 C 295.71875 102.648438 296.417969 102.898438 297.109375 103.183594 C 297.796875 103.46875 298.46875 103.785156 299.125 104.136719 C 299.785156 104.488281 300.421875 104.871094 301.042969 105.285156 C 301.660156 105.699219 302.261719 106.144531 302.835938 106.617188 C 303.414062 107.089844 303.964844 107.589844 304.492188 108.117188 C 305.019531 108.640625 305.519531 109.195312 305.992188 109.769531 C 306.464844 110.347656 306.90625 110.945312 307.320312 111.5625 C 307.734375 112.183594 308.117188 112.820312 308.46875 113.480469 C 308.820312 114.136719 309.136719 114.808594 309.421875 115.5 C 309.710938 116.1875 309.960938 116.886719 310.175781 117.601562 C 310.390625 118.3125 310.574219 119.035156 310.71875 119.765625 C 310.863281 120.5 310.972656 121.234375 311.046875 121.976562 C 311.121094 122.71875 311.15625 123.460938 311.15625 124.207031 Z M 311.15625 124.207031 " fill-opacity="1" fill-rule="nonzero"/><path fill="#3080aa" d="M 344.84375 116.324219 L 490.664062 116.324219 C 494.351562 116.324219 497.277344 119.25 497.277344 122.933594 L 497.277344 125.351562 C 497.277344 129.039062 494.351562 131.960938 490.664062 131.960938 L 344.84375 131.960938 C 341.160156 131.960938 338.234375 129.039062 338.234375 125.351562 L 338.234375 122.933594 C 338.234375 119.375 341.160156 116.324219 344.84375 116.324219 Z M 344.84375 116.324219 " fill-opacity="1" fill-rule="nonzero"/><path fill="#00d3bd" d="M 311.15625 210.148438 C 311.15625 210.890625 311.121094 211.636719 311.046875 212.378906 C 310.972656 213.121094 310.863281 213.855469 310.71875 214.585938 C 310.574219 215.316406 310.390625 216.039062 310.175781 216.753906 C 309.960938 217.464844 309.710938 218.167969 309.421875 218.855469 C 309.136719 219.542969 308.820312 220.21875 308.46875 220.875 C 308.117188 221.53125 307.734375 222.171875 307.320312 222.789062 C 306.90625 223.410156 306.464844 224.007812 305.992188 224.582031 C 305.519531 225.160156 305.019531 225.710938 304.492188 226.238281 C 303.964844 226.765625 303.414062 227.265625 302.835938 227.738281 C 302.261719 228.210938 301.660156 228.65625 301.042969 229.070312 C 300.421875 229.484375 299.785156 229.863281 299.125 230.214844 C 298.46875 230.566406 297.796875 230.886719 297.109375 231.171875 C 296.417969 231.457031 295.71875 231.707031 295.003906 231.921875 C 294.292969 232.140625 293.570312 232.320312 292.839844 232.464844 C 292.109375 232.613281 291.371094 232.722656 290.628906 232.792969 C 289.886719 232.867188 289.144531 232.902344 288.398438 232.902344 C 287.65625 232.902344 286.910156 232.867188 286.167969 232.792969 C 285.425781 232.722656 284.691406 232.613281 283.960938 232.464844 C 283.230469 232.320312 282.507812 232.140625 281.792969 231.921875 C 281.082031 231.707031 280.378906 231.457031 279.691406 231.171875 C 279.003906 230.886719 278.328125 230.566406 277.671875 230.214844 C 277.015625 229.863281 276.375 229.484375 275.757812 229.070312 C 275.136719 228.65625 274.539062 228.210938 273.964844 227.738281 C 273.386719 227.265625 272.835938 226.765625 272.308594 226.238281 C 271.78125 225.710938 271.28125 225.160156 270.808594 224.582031 C 270.335938 224.007812 269.890625 223.410156 269.476562 222.789062 C 269.0625 222.171875 268.679688 221.53125 268.332031 220.875 C 267.980469 220.21875 267.660156 219.542969 267.375 218.855469 C 267.089844 218.167969 266.839844 217.464844 266.625 216.753906 C 266.40625 216.039062 266.226562 215.316406 266.082031 214.585938 C 265.933594 213.855469 265.824219 213.121094 265.753906 212.378906 C 265.679688 211.636719 265.644531 210.890625 265.644531 210.148438 C 265.644531 209.402344 265.679688 208.660156 265.753906 207.917969 C 265.824219 207.175781 265.933594 206.4375 266.082031 205.707031 C 266.226562 204.976562 266.40625 204.253906 266.625 203.542969 C 266.839844 202.828125 267.089844 202.128906 267.375 201.4375 C 267.660156 200.75 267.980469 200.078125 268.332031 199.417969 C 268.679688 198.761719 269.0625 198.125 269.476562 197.503906 C 269.890625 196.882812 270.335938 196.285156 270.808594 195.710938 C 271.28125 195.132812 271.78125 194.582031 272.308594 194.054688 C 272.835938 193.527344 273.386719 193.027344 273.964844 192.554688 C 274.539062 192.082031 275.136719 191.640625 275.757812 191.226562 C 276.375 190.8125 277.015625 190.429688 277.671875 190.078125 C 278.328125 189.726562 279.003906 189.40625 279.691406 189.121094 C 280.378906 188.835938 281.082031 188.585938 281.792969 188.371094 C 282.507812 188.152344 283.230469 187.972656 283.960938 187.828125 C 284.691406 187.683594 285.425781 187.574219 286.167969 187.5 C 286.910156 187.425781 287.65625 187.390625 288.398438 187.390625 C 289.144531 187.390625 289.886719 187.425781 290.628906 187.5 C 291.371094 187.574219 292.109375 187.683594 292.839844 187.828125 C 293.570312 187.972656 294.292969 188.152344 295.003906 188.371094 C 295.71875 188.585938 296.417969 188.835938 297.109375 189.121094 C 297.796875 189.40625 298.46875 189.726562 299.125 190.078125 C 299.785156 190.429688 300.421875 190.8125 301.042969 191.226562 C 301.660156 191.640625 302.261719 192.082031 302.835938 192.554688 C 303.414062 193.027344 303.964844 193.527344 304.492188 194.054688 C 305.019531 194.582031 305.519531 195.132812 305.992188 195.710938 C 306.464844 196.285156 306.90625 196.882812 307.320312 197.503906 C 307.734375 198.125 308.117188 198.761719 308.46875 199.417969 C 308.820312 200.078125 309.136719 200.75 309.421875 201.4375 C 309.710938 202.128906 309.960938 202.828125 310.175781 203.542969 C 310.390625 204.253906 310.574219 204.976562 310.71875 205.707031 C 310.863281 206.4375 310.972656 207.175781 311.046875 207.917969 C 311.121094 208.660156 311.15625 209.402344 311.15625 210.148438 Z M 311.15625 210.148438 " fill-opacity="1" fill-rule="nonzero"/><path fill="#3080aa" d="M 344.84375 202.390625 L 490.664062 202.390625 C 494.351562 202.390625 497.277344 205.316406 497.277344 209.003906 L 497.277344 211.417969 C 497.277344 215.105469 494.351562 218.027344 490.664062 218.027344 L 344.84375 218.027344 C 341.160156 218.027344 338.234375 215.105469 338.234375 211.417969 L 338.234375 209.003906 C 338.234375 205.316406 341.160156 202.390625 344.84375 202.390625 Z M 344.84375 202.390625 " fill-opacity="1" fill-rule="nonzero"/><path fill="#3080aa" d="M 344.84375 288.332031 L 490.664062 288.332031 C 494.351562 288.332031 497.277344 291.257812 497.277344 294.941406 L 497.277344 297.359375 C 497.277344 301.046875 494.351562 303.96875 490.664062 303.96875 L 344.84375 303.96875 C 341.160156 303.96875 338.234375 301.046875 338.234375 297.359375 L 338.234375 294.941406 C 338.234375 291.257812 341.160156 288.332031 344.84375 288.332031 Z M 344.84375 288.332031 " fill-opacity="1" fill-rule="nonzero"/><path fill="#00d3bd" d="M 311.15625 382.15625 C 311.15625 382.898438 311.121094 383.644531 311.046875 384.386719 C 310.972656 385.128906 310.863281 385.863281 310.71875 386.59375 C 310.574219 387.324219 310.390625 388.046875 310.175781 388.761719 C 309.960938 389.472656 309.710938 390.175781 309.421875 390.863281 C 309.136719 391.550781 308.820312 392.226562 308.46875 392.882812 C 308.117188 393.539062 307.734375 394.179688 307.320312 394.796875 C 306.90625 395.417969 306.464844 396.015625 305.992188 396.589844 C 305.519531 397.167969 305.019531 397.71875 304.492188 398.246094 C 303.964844 398.773438 303.414062 399.273438 302.835938 399.746094 C 302.261719 400.21875 301.660156 400.664062 301.042969 401.078125 C 300.421875 401.492188 299.785156 401.875 299.125 402.222656 C 298.46875 402.574219 297.796875 402.894531 297.109375 403.179688 C 296.417969 403.464844 295.71875 403.714844 295.003906 403.929688 C 294.292969 404.148438 293.570312 404.328125 292.839844 404.472656 C 292.109375 404.621094 291.371094 404.730469 290.628906 404.800781 C 289.886719 404.875 289.144531 404.910156 288.398438 404.910156 C 287.65625 404.910156 286.910156 404.875 286.167969 404.800781 C 285.425781 404.730469 284.691406 404.621094 283.960938 404.472656 C 283.230469 404.328125 282.507812 404.148438 281.792969 403.929688 C 281.082031 403.714844 280.378906 403.464844 279.691406 403.179688 C 279.003906 402.894531 278.328125 402.574219 277.671875 402.222656 C 277.015625 401.875 276.375 401.492188 275.757812 401.078125 C 275.136719 400.664062 274.539062 400.21875 273.964844 399.746094 C 273.386719 399.273438 272.835938 398.773438 272.308594 398.246094 C 271.78125 397.71875 271.28125 397.167969 270.808594 396.589844 C 270.335938 396.015625 269.890625 395.417969 269.476562 394.796875 C 269.0625 394.179688 268.679688 393.539062 268.332031 392.882812 C 267.980469 392.226562 267.660156 391.550781 267.375 390.863281 C 267.089844 390.175781 266.839844 389.472656 266.625 388.761719 C 266.40625 388.046875 266.226562 387.324219 266.082031 386.59375 C 265.933594 385.863281 265.824219 385.128906 265.753906 384.386719 C 265.679688 383.644531 265.644531 382.898438 265.644531 382.15625 C 265.644531 381.410156 265.679688 380.667969 265.753906 379.925781 C 265.824219 379.183594 265.933594 378.445312 266.082031 377.714844 C 266.226562 376.984375 266.40625 376.261719 266.625 375.550781 C 266.839844 374.835938 267.089844 374.136719 267.375 373.445312 C 267.660156 372.757812 267.980469 372.085938 268.332031 371.429688 C 268.679688 370.769531 269.0625 370.132812 269.476562 369.511719 C 269.890625 368.890625 270.335938 368.292969 270.808594 367.71875 C 271.28125 367.140625 271.78125 366.589844 272.308594 366.0625 C 272.835938 365.535156 273.386719 365.035156 273.964844 364.5625 C 274.539062 364.089844 275.136719 363.648438 275.757812 363.234375 C 276.375 362.820312 277.015625 362.4375 277.671875 362.085938 C 278.328125 361.734375 279.003906 361.417969 279.691406 361.132812 C 280.378906 360.84375 281.082031 360.59375 281.792969 360.378906 C 282.507812 360.164062 283.230469 359.980469 283.960938 359.835938 C 284.691406 359.691406 285.425781 359.582031 286.167969 359.507812 C 286.910156 359.433594 287.65625 359.398438 288.398438 359.398438 C 289.144531 359.398438 289.886719 359.433594 290.628906 359.507812 C 291.371094 359.582031 292.109375 359.691406 292.839844 359.835938 C 293.570312 359.980469 294.292969 360.164062 295.003906 360.378906 C 295.71875 360.59375 296.417969 360.84375 297.109375 361.128906 C 297.796875 361.417969 298.46875 361.734375 299.125 362.085938 C 299.785156 362.4375 300.421875 362.820312 301.042969 363.234375 C 301.660156 363.648438 302.261719 364.089844 302.835938 364.5625 C 303.414062 365.035156 303.964844 365.535156 304.492188 366.0625 C 305.019531 366.589844 305.519531 367.140625 305.992188 367.71875 C 306.464844 368.292969 306.90625 368.890625 307.320312 369.511719 C 307.734375 370.132812 308.117188 370.769531 308.46875 371.429688 C 308.820312 372.085938 309.136719 372.757812 309.421875 373.445312 C 309.710938 374.136719 309.960938 374.835938 310.175781 375.550781 C 310.390625 376.261719 310.574219 376.984375 310.71875 377.714844 C 310.863281 378.445312 310.972656 379.183594 311.046875 379.925781 C 311.121094 380.667969 311.15625 381.410156 311.15625 382.15625 Z M 311.15625 382.15625 " fill-opacity="1" fill-rule="nonzero"/><path fill="#3080aa" d="M 344.84375 374.273438 L 490.664062 374.273438 C 494.351562 374.273438 497.277344 377.195312 497.277344 380.882812 L 497.277344 383.300781 C 497.277344 386.984375 494.351562 389.910156 490.664062 389.910156 L 344.84375 389.910156 C 341.160156 389.910156 338.234375 386.984375 338.234375 383.300781 L 338.234375 380.882812 C 338.234375 377.324219 341.160156 374.273438 344.84375 374.273438 Z M 344.84375 374.273438 " fill-opacity="1" fill-rule="nonzero"/><path fill="#fe674b" d="M 456.722656 26.1875 L 421.503906 26.1875 C 419.472656 11.441406 402.308594 0 381.460938 0 C 360.609375 0 343.445312 11.441406 341.414062 26.1875 L 306.199219 26.1875 C 297.042969 26.1875 289.671875 33.5625 289.671875 42.714844 L 289.671875 49.199219 C 289.671875 58.351562 297.042969 65.726562 306.199219 65.726562 L 456.722656 65.726562 C 465.875 65.726562 473.246094 58.351562 473.246094 49.199219 L 473.246094 42.714844 C 473.246094 33.5625 465.875 26.1875 456.722656 26.1875 Z M 456.722656 26.1875 " fill-opacity="1" fill-rule="nonzero"/><path fill="#fe674b" d="M 149.445312 281.46875 C 149.445312 342.492188 178.6875 393.214844 217.332031 403.640625 C 218.222656 403.894531 218.859375 404.65625 218.859375 405.546875 C 218.859375 406.4375 218.222656 407.328125 217.332031 407.453125 C 178.6875 417.878906 149.445312 468.605469 149.445312 529.625 C 149.445312 530.261719 149.445312 530.898438 149.445312 531.40625 L 314.460938 531.40625 C 314.460938 530.769531 314.460938 530.136719 314.460938 529.625 C 314.460938 468.605469 285.222656 417.878906 246.574219 407.453125 C 245.683594 407.199219 245.046875 406.4375 245.046875 405.546875 C 245.046875 404.65625 245.683594 403.765625 246.574219 403.640625 C 285.222656 393.214844 314.460938 342.492188 314.460938 281.46875 C 314.460938 280.832031 314.460938 280.195312 314.460938 279.6875 L 149.445312 279.6875 C 149.445312 280.324219 149.445312 280.832031 149.445312 281.46875 Z M 149.445312 281.46875 " fill-opacity="1" fill-rule="nonzero"/><g clip-path="url(#5d65813236)"><path fill="#3080aa" d="M 147.03125 525.429688 L 316.875 525.429688 C 320.308594 525.429688 323.105469 528.226562 323.105469 531.660156 C 323.105469 535.09375 320.308594 537.890625 316.875 537.890625 L 147.03125 537.890625 C 143.597656 537.890625 140.800781 535.09375 140.800781 531.660156 C 140.800781 528.226562 143.597656 525.429688 147.03125 525.429688 Z M 147.03125 525.429688 " fill-opacity="1" fill-rule="nonzero"/></g><g clip-path="url(#6e0e335304)"><path fill="#3080aa" d="M 147.03125 273.457031 L 316.875 273.457031 C 320.308594 273.457031 323.105469 276.253906 323.105469 279.6875 C 323.105469 283.121094 320.308594 285.917969 316.875 285.917969 L 147.03125 285.917969 C 143.597656 285.917969 140.800781 283.121094 140.800781 279.6875 C 140.800781 276.253906 143.597656 273.457031 147.03125 273.457031 Z M 147.03125 273.457031 " fill-opacity="1" fill-rule="nonzero"/></g><path fill="#f3ad68" d="M 185.296875 343.253906 C 178.175781 343.253906 173.601562 350.753906 176.777344 357.238281 C 186.949219 377.578125 201.949219 392.199219 219.242188 397.03125 C 223.945312 398.300781 227.503906 402.242188 228.648438 407.074219 C 228.773438 408.726562 230.046875 410.125 231.570312 410.25 C 233.351562 410.503906 235.257812 409.105469 235.511719 407.074219 C 236.53125 402.242188 240.089844 398.429688 244.921875 397.03125 C 262.210938 392.199219 277.210938 377.578125 287.382812 357.238281 C 290.5625 350.882812 285.984375 343.253906 278.863281 343.253906 Z M 185.296875 343.253906 " fill-opacity="1" fill-rule="nonzero"/><path fill="#f3ad68" d="M 223.308594 476.359375 L 173.601562 509.414062 C 166.355469 514.242188 169.785156 525.429688 178.429688 525.429688 L 285.476562 525.429688 C 294.121094 525.429688 297.554688 514.117188 290.304688 509.414062 L 240.597656 476.359375 C 235.257812 472.925781 228.519531 472.925781 223.308594 476.359375 Z M 223.308594 476.359375 " fill-opacity="1" fill-rule="nonzero"/><path fill="#3080aa" d="M 582.960938 262.523438 L 594.65625 224.511719 L 637.5 237.734375 C 640.042969 238.496094 641.441406 241.167969 640.679688 243.710938 L 631.78125 272.566406 C 631.015625 275.109375 628.347656 276.507812 625.804688 275.746094 Z M 582.960938 262.523438 " fill-opacity="1" fill-rule="nonzero"/><path fill="#ffffff" d="M 560.519531 255.71875 L 572.207031 217.679688 L 616.925781 231.421875 L 605.238281 269.457031 Z M 560.519531 255.71875 " fill-opacity="1" fill-rule="nonzero"/><path fill="#f3ad68" d="M 388.199219 180.652344 L 426.082031 172.898438 L 429.386719 173.914062 L 417.4375 211.800781 L 414.257812 210.78125 L 387.433594 183.066406 C 386.542969 182.179688 387.054688 180.78125 388.199219 180.652344 Z M 388.199219 180.652344 " fill-opacity="1" fill-rule="nonzero"/><path fill="#fe674b" d="M 415.65625 211.164062 L 586.394531 263.667969 L 598.089844 225.65625 L 427.355469 173.152344 L 425.957031 172.769531 L 420.363281 177.09375 C 419.851562 177.472656 419.597656 178.109375 419.851562 178.746094 L 421.761719 184.464844 C 422.015625 185.101562 421.761719 185.738281 421.25 186.121094 L 416.546875 189.679688 C 416.039062 190.058594 415.785156 190.695312 416.039062 191.332031 L 417.945312 197.050781 C 418.199219 197.6875 417.945312 198.324219 417.4375 198.707031 L 412.734375 202.265625 C 412.226562 202.644531 411.972656 203.28125 412.226562 203.917969 L 414.511719 210.65625 Z M 415.65625 211.164062 " fill-opacity="1" fill-rule="nonzero"/><path fill="#fe674b" d="M 394.679688 190.570312 L 387.433594 183.066406 C 386.671875 182.179688 387.054688 180.78125 388.199219 180.652344 L 398.367188 178.492188 Z M 394.679688 190.570312 " fill-opacity="1" fill-rule="nonzero"/><path fill="#00d3bd" d="M 220.765625 244.34375 C 220.765625 244.34375 223.5625 247.777344 224.070312 248.03125 C 226.867188 249.175781 229.792969 248.792969 232.714844 248.792969 C 240.34375 248.921875 248.097656 249.304688 255.726562 249.9375 C 261.195312 250.320312 266.914062 251.082031 270.984375 254.769531 C 276.066406 259.472656 275.8125 266.71875 275.558594 273.710938 L 177.414062 273.710938 C 170.929688 265.957031 173.726562 254.386719 178.050781 245.363281 C 185.804688 244.34375 220.765625 244.34375 220.765625 244.34375 Z M 220.765625 244.34375 " fill-opacity="1" fill-rule="nonzero"/><path fill="#fe674b" d="M 207.164062 138.828125 C 209.578125 141.496094 208.941406 145.820312 210.722656 148.996094 C 211.613281 150.523438 212.882812 151.667969 213.648438 153.191406 C 214.917969 155.734375 214.535156 158.785156 213.136719 161.328125 C 211.738281 163.871094 209.832031 165.90625 207.796875 167.941406 C 207.417969 170.101562 207.671875 173.277344 208.816406 175.1875 C 203.09375 179.128906 195.339844 180.015625 188.855469 177.730469 C 188.855469 175.695312 189.363281 173.535156 189.363281 171.371094 C 182.882812 165.523438 180.210938 154.71875 184.152344 146.964844 C 188.09375 139.207031 201.570312 132.34375 207.164062 138.828125 Z M 207.164062 138.828125 " fill-opacity="1" fill-rule="nonzero"/><path fill="#3080aa" d="M 206.398438 154.84375 C 205 154.972656 203.601562 154.589844 202.460938 153.699219 C 201.316406 152.8125 200.679688 151.539062 200.550781 150.140625 C 200.425781 149.125 200.804688 147.851562 201.695312 147.34375 C 202.203125 147.089844 202.714844 147.089844 203.222656 147.089844 C 203.984375 147.089844 204.875 147.34375 205.128906 148.105469 C 205.382812 148.617188 205.511719 149.125 205.636719 149.761719 C 205.765625 150.394531 206.273438 151.03125 206.910156 150.777344 C 206.910156 148.871094 208.6875 147.472656 209.453125 145.820312 C 209.832031 144.929688 209.960938 144.039062 210.085938 143.023438 C 210.59375 138.828125 209.195312 134.757812 205.128906 133.105469 C 200.804688 131.199219 195.59375 131.960938 191.527344 134.121094 C 187.203125 136.285156 183.136719 140.226562 180.71875 144.421875 C 179.195312 147.089844 178.429688 150.140625 178.8125 153.191406 C 179.320312 157.769531 181.484375 161.964844 181.863281 166.542969 C 181.992188 167.941406 181.738281 169.082031 182.882812 169.972656 C 187.710938 173.789062 197.753906 171.5 202.460938 168.320312 C 203.730469 167.429688 205 166.542969 205.636719 165.144531 C 206.144531 164.125 206.144531 162.980469 206.273438 161.964844 C 206.144531 159.675781 206.273438 157.261719 206.398438 154.84375 Z M 206.398438 154.84375 " fill-opacity="1" fill-rule="nonzero"/><path fill="#f3ad68" d="M 209.070312 175.058594 C 216.445312 171.878906 232.460938 170.738281 241.617188 166.921875 C 247.71875 164.378906 271.617188 151.667969 273.015625 150.902344 L 277.976562 161.203125 C 271.238281 166.542969 251.023438 181.289062 248.863281 182.8125 C 240.726562 188.535156 235.765625 192.984375 228.519531 199.847656 C 228.519531 199.847656 227.121094 209.636719 227.375 213.070312 C 227.632812 216.503906 228.519531 219.9375 229.539062 223.242188 C 230.171875 225.402344 230.9375 227.4375 231.316406 229.726562 C 232.207031 235.445312 231.699219 244.855469 227.121094 248.414062 C 226.105469 249.175781 224.199219 249.429688 223.054688 249.683594 C 220.382812 250.449219 217.714844 251.082031 215.046875 251.71875 C 204.238281 254.261719 193.941406 254.898438 182.882812 255.40625 C 179.703125 255.53125 176.523438 255.40625 173.347656 255.277344 L 175.507812 243.964844 C 175.507812 243.964844 169.914062 244.472656 166.101562 243.582031 C 162.285156 242.691406 158.472656 240.277344 156.945312 236.71875 C 155.546875 233.285156 156.183594 229.472656 156.945312 225.785156 C 159.363281 213.707031 160.507812 201.375 165.71875 190.058594 C 167.117188 187.007812 170.550781 185.609375 173.601562 184.464844 C 178.558594 182.558594 183.769531 180.269531 188.601562 178.109375 C 188.855469 177.984375 202.839844 177.730469 209.070312 175.058594 Z M 209.070312 175.058594 " fill-opacity="1" fill-rule="nonzero"/><path fill="#fe674b" d="M 275.941406 161.328125 C 276.320312 161.074219 276.832031 160.949219 277.210938 160.949219 C 279.5 160.4375 282.042969 160.183594 284.203125 159.421875 C 285.09375 159.167969 285.730469 158.152344 285.730469 157.261719 C 285.730469 156.878906 285.601562 156.371094 285.855469 155.988281 C 285.984375 155.863281 286.109375 155.734375 286.238281 155.480469 C 286.621094 154.84375 285.984375 153.957031 286.109375 153.191406 C 286.109375 152.9375 286.238281 152.8125 286.367188 152.558594 C 286.621094 151.792969 286.109375 150.777344 285.347656 150.523438 C 285.09375 150.394531 284.839844 150.269531 284.96875 150.140625 C 286.238281 149.125 287.253906 147.851562 287.890625 146.328125 C 288.019531 145.945312 288.144531 145.566406 287.890625 145.308594 C 287.765625 145.183594 287.636719 145.183594 287.382812 145.183594 C 286.367188 145.183594 285.476562 145.820312 284.585938 146.328125 C 282.933594 147.472656 281.28125 148.488281 279.5 149.503906 C 279.375 149.632812 279.117188 149.761719 278.863281 149.761719 C 278.609375 149.761719 278.484375 149.378906 278.609375 149.25 C 279.117188 148.617188 279.5 147.980469 280.007812 147.34375 C 280.261719 146.964844 280.515625 146.453125 280.390625 146.074219 C 280.261719 145.820312 279.882812 145.691406 279.5 145.691406 C 279.117188 145.691406 278.863281 145.820312 278.609375 146.074219 C 277.976562 146.582031 277.464844 147.089844 276.957031 147.726562 C 276.066406 148.617188 275.179688 149.378906 274.414062 150.269531 C 273.652344 151.160156 272.890625 152.175781 272.636719 153.445312 C 273.269531 154.84375 273.144531 156.371094 273.90625 157.640625 C 274.542969 158.785156 274.921875 160.183594 275.941406 161.328125 Z M 275.941406 161.328125 " fill-opacity="1" fill-rule="nonzero"/><path fill="#f3ad68" d="M 464.855469 289.730469 C 461.425781 286.550781 458.753906 283.753906 458.5 279.816406 C 457.738281 266.085938 459.007812 249.050781 459.644531 235.320312 C 459.773438 233.03125 460.535156 230.996094 461.296875 228.835938 C 461.550781 227.945312 462.058594 227.5625 462.824219 227.054688 C 463.203125 226.675781 463.714844 226.417969 464.222656 226.164062 C 465.113281 225.785156 466.382812 225.785156 467.019531 225.148438 C 467.273438 224.894531 467.398438 224.511719 467.144531 224.257812 C 467.019531 224.003906 466.636719 224.003906 466.382812 223.878906 C 464.984375 223.75 463.585938 224.257812 462.1875 224.386719 C 459.007812 224.894531 455.703125 224.386719 453.289062 222.222656 C 452.527344 221.589844 451.636719 221.589844 450.746094 222.222656 C 451.890625 223.496094 452.90625 224.894531 453.414062 226.546875 C 453.925781 228.199219 453.414062 229.980469 453.035156 231.632812 C 450.617188 242.945312 443.246094 261.507812 441.71875 273.078125 C 441.210938 277.144531 440.703125 281.214844 441.339844 285.28125 C 441.972656 289.347656 446.550781 294.5625 449.730469 298.121094 C 452.269531 296.851562 454.558594 295.832031 457.230469 294.5625 C 458.121094 294.054688 459.136719 293.671875 459.898438 293.035156 C 461.550781 292.019531 463.332031 290.875 464.855469 289.730469 Z M 464.855469 289.730469 " fill-opacity="1" fill-rule="nonzero"/><path fill="#f3ad68" d="M 536.558594 301.171875 C 536.558594 300.792969 536.6875 300.410156 536.8125 300.15625 C 538.085938 296.722656 542.660156 296.597656 545.457031 294.6875 C 550.417969 291.128906 554.613281 286.550781 558.679688 281.976562 C 564.402344 275.621094 570.882812 269.007812 574.953125 261.378906 C 575.332031 260.617188 575.332031 259.855469 575.332031 259.09375 C 575.332031 258.582031 575.207031 257.949219 575.078125 257.441406 C 574.699219 256.550781 573.808594 255.660156 573.808594 254.644531 C 573.808594 254.261719 574.0625 253.878906 574.316406 253.878906 C 574.570312 253.878906 574.824219 254.007812 575.078125 254.132812 C 576.222656 255.023438 576.730469 256.421875 577.621094 257.566406 C 579.402344 260.238281 582.070312 262.269531 585.25 262.652344 C 585.757812 262.652344 586.265625 262.90625 586.519531 263.414062 C 586.648438 263.667969 586.777344 263.921875 586.902344 264.175781 C 587.03125 264.558594 586.902344 264.558594 586.519531 264.6875 C 585.25 264.941406 583.980469 265.320312 582.835938 266.210938 C 581.816406 267.101562 581.054688 268.246094 580.292969 269.390625 C 576.097656 275.492188 572.410156 282.101562 568.851562 288.585938 C 565.800781 294.179688 561.09375 301.425781 555.753906 305.242188 C 552.070312 307.910156 547.746094 310.453125 543.679688 312.742188 C 541.261719 314.011719 540.371094 314.519531 539.484375 311.722656 C 538.71875 309.4375 538.085938 307.273438 537.320312 304.988281 C 536.941406 303.714844 536.433594 302.445312 536.558594 301.171875 Z M 536.558594 301.171875 " fill-opacity="1" fill-rule="nonzero"/><path fill="#f3ad68" d="M 484.816406 467.207031 C 483.671875 483.734375 478.585938 506.234375 477.316406 522.632812 L 461.425781 521.492188 C 461.425781 505.851562 459.898438 488.308594 459.898438 469.238281 C 465.746094 464.917969 478.332031 463.773438 484.816406 467.207031 Z M 484.816406 467.207031 " fill-opacity="1" fill-rule="nonzero"/><path fill="#f3ad68" d="M 517.996094 454.492188 C 521.683594 470.636719 522.957031 494.921875 526.644531 511.066406 L 511.515625 516.660156 C 506.9375 501.785156 499.691406 476.867188 494.097656 462.375 C 498.546875 456.398438 510.878906 453.09375 517.996094 454.492188 Z M 517.996094 454.492188 " fill-opacity="1" fill-rule="nonzero"/><path fill="#fe674b" d="M 502.996094 310.453125 C 516.089844 304.730469 540.246094 296.46875 540.246094 296.46875 L 545.332031 313.886719 C 545.332031 313.886719 528.167969 323.800781 517.109375 329.394531 C 515.582031 340.835938 512.785156 358.636719 513.929688 370.203125 C 505.667969 373.636719 496.640625 375.542969 487.742188 375.671875 C 481.894531 375.796875 475.535156 372.875 470.960938 369.316406 C 472.613281 361.8125 472.230469 355.078125 472.230469 355.078125 C 472.230469 355.078125 470.324219 353.421875 469.816406 353.042969 C 466.765625 350.753906 466.128906 348.847656 465.621094 345.03125 C 465.238281 340.710938 467.398438 337.152344 468.796875 333.335938 C 469.5625 331.175781 470.703125 328.632812 469.433594 326.597656 C 462.058594 314.902344 446.675781 297.230469 446.675781 297.230469 L 462.695312 286.425781 C 462.695312 286.425781 479.222656 302.824219 488.121094 311.597656 C 491.9375 315.15625 498.039062 312.613281 502.996094 310.453125 Z M 502.996094 310.453125 " fill-opacity="1" fill-rule="nonzero"/><path fill="#3080aa" d="M 513.800781 368.679688 C 518.886719 373.765625 520.03125 381.011719 521.175781 388.128906 C 522.320312 395.25 522.066406 402.625 521.9375 409.871094 C 521.8125 429.703125 524.863281 451.570312 528.804688 471.019531 L 452.015625 471.019531 C 459.136719 448.515625 462.441406 430.335938 463.078125 409.105469 C 463.457031 395.757812 466.765625 381.773438 471.085938 369.0625 C 485.199219 372.875 499.4375 372.367188 513.800781 368.679688 Z M 513.800781 368.679688 " fill-opacity="1" fill-rule="nonzero"/><path fill="#f3ad68" d="M 504.140625 303.96875 C 510.878906 300.28125 515.199219 292.527344 514.820312 284.898438 C 514.691406 282.355469 514.183594 279.816406 512.785156 277.652344 C 511.261719 275.238281 508.71875 273.585938 506.046875 272.566406 C 497.65625 269.007812 485.832031 268.117188 483.417969 279.558594 C 483.164062 281.085938 483.417969 282.613281 482.78125 283.882812 C 482.019531 285.410156 480.113281 286.808594 478.839844 287.949219 C 476.933594 289.605469 477.570312 291.003906 478.585938 292.910156 C 479.984375 295.453125 479.097656 296.597656 479.351562 299.648438 C 479.476562 301.300781 479.984375 303.078125 481.257812 304.222656 C 482.019531 304.988281 488.121094 308.039062 488.121094 308.292969 C 488.25 309.945312 488.121094 311.851562 487.359375 313.378906 C 486.722656 314.648438 485.707031 315.792969 485.070312 317.0625 C 484.054688 319.097656 483.800781 321.511719 484.816406 323.546875 C 485.832031 325.582031 488.25 326.851562 490.410156 326.34375 C 491.300781 326.089844 492.0625 325.710938 492.699219 325.199219 C 495.878906 323.167969 498.546875 320.242188 500.328125 316.9375 C 502.488281 312.742188 503.886719 308.417969 504.140625 303.96875 Z M 504.140625 303.96875 " fill-opacity="1" fill-rule="nonzero"/><g clip-path="url(#d081f64dd7)"><path fill="#00d3bd" d="M 526.515625 510.175781 L 511.386719 515.898438 C 511.386719 515.898438 513.675781 524.796875 513.546875 527.210938 C 513.546875 528.226562 513.421875 529.371094 513.039062 530.261719 C 512.402344 531.914062 511.132812 532.933594 509.988281 533.820312 C 508.71875 534.839844 507.320312 535.855469 506.046875 536.875 C 505.539062 537.253906 505.03125 537.636719 504.648438 538.273438 C 503.632812 539.925781 504.269531 542.339844 505.03125 544.375 C 510.117188 544.5 515.199219 543.738281 520.160156 542.085938 C 520.792969 541.832031 521.558594 541.578125 522.066406 541.070312 C 522.828125 540.433594 523.210938 539.289062 523.71875 538.273438 C 524.863281 535.984375 526.132812 533.820312 527.53125 531.914062 C 528.929688 530.136719 530.839844 528.863281 531.980469 526.828125 C 533.125 525.304688 526.515625 510.175781 526.515625 510.175781 Z M 526.515625 510.175781 " fill-opacity="1" fill-rule="nonzero"/></g><g clip-path="url(#512b2c8a69)"><path fill="#00d3bd" d="M 461.296875 520.855469 C 461.296875 520.855469 460.535156 523.777344 460.027344 525.304688 C 459.390625 527.464844 458.375 529.5 456.847656 531.023438 C 455.066406 532.804688 452.78125 533.695312 450.617188 534.585938 C 448.585938 535.347656 446.550781 536.238281 444.515625 537 C 442.226562 537.890625 443.246094 541.449219 443.753906 543.609375 C 443.878906 544.121094 447.566406 543.992188 447.820312 543.992188 C 450.871094 544.121094 454.050781 544.121094 457.101562 544.121094 C 460.660156 544.121094 464.222656 544.121094 467.910156 543.992188 C 469.308594 543.992188 472.867188 543.867188 474.265625 543.738281 C 474.773438 543.738281 475.28125 543.609375 475.789062 543.609375 C 477.0625 543.484375 477.1875 542.847656 477.316406 541.324219 C 477.570312 537 477.316406 521.109375 477.316406 521.109375 Z M 461.296875 520.855469 " fill-opacity="1" fill-rule="nonzero"/></g><path fill="#00d3bd" d="M 505.15625 319.226562 C 506.429688 322.148438 507.699219 324.054688 510.242188 325.835938 C 511.003906 326.34375 511.769531 326.980469 512.785156 327.234375 C 513.675781 327.488281 514.820312 327.234375 515.457031 326.597656 C 516.089844 325.835938 516.089844 324.566406 515.964844 323.546875 C 515.964844 321.640625 516.21875 319.734375 516.855469 317.953125 C 517.234375 316.683594 517.871094 315.539062 518.253906 314.265625 C 519.523438 310.835938 520.921875 306.257812 518.761719 302.953125 C 517.996094 301.808594 516.855469 300.792969 515.457031 299.902344 C 514.183594 299.140625 512.660156 298.628906 511.132812 298.375 C 511.261719 298.25 511.386719 298.121094 511.386719 298.121094 C 513.421875 296.085938 514.945312 293.546875 515.964844 290.875 C 517.871094 285.535156 517.742188 278.796875 513.800781 274.222656 C 510.496094 270.40625 504.902344 268.628906 499.945312 268.246094 C 497.277344 268.117188 494.480469 268.375 491.9375 269.261719 C 491.171875 269.515625 487.105469 271.171875 487.230469 272.1875 C 487.996094 278.671875 493.082031 284.519531 499.308594 286.171875 C 499.183594 287.570312 499.4375 289.222656 500.582031 290.113281 C 501.089844 289.476562 501.214844 288.207031 501.980469 287.824219 C 502.742188 287.441406 503.632812 287.1875 504.394531 287.570312 C 504.648438 287.695312 505.03125 287.953125 505.15625 288.207031 C 505.921875 289.09375 506.175781 290.492188 505.921875 291.636719 C 505.667969 292.78125 504.523438 293.800781 503.378906 294.179688 C 504.394531 295.324219 504.011719 297.105469 504.011719 298.628906 C 504.011719 300.027344 503.886719 302.445312 504.269531 303.84375 C 504.269531 304.097656 504.140625 304.222656 504.140625 304.476562 C 503.125 309.4375 503.25 314.648438 505.15625 319.226562 Z M 505.15625 319.226562 " fill-opacity="1" fill-rule="nonzero"/></svg>