<svg xmlns="http://www.w3.org/2000/svg" xmlns:xlink="http://www.w3.org/1999/xlink" width="500" zoomAndPan="magnify" viewBox="0 0 375 374.999991" height="500" preserveAspectRatio="xMidYMid meet" version="1.0"><defs><g/><clipPath id="11b7f15e08"><path d="M 17.25 0 L 357.75 0 C 362.324219 0 366.710938 1.816406 369.949219 5.050781 C 373.183594 8.289062 375 12.675781 375 17.25 L 375 357.75 C 375 362.324219 373.183594 366.710938 369.949219 369.949219 C 366.710938 373.183594 362.324219 375 357.75 375 L 17.25 375 C 12.675781 375 8.289062 373.183594 5.050781 369.949219 C 1.816406 366.710938 0 362.324219 0 357.75 L 0 17.25 C 0 12.675781 1.816406 8.289062 5.050781 5.050781 C 8.289062 1.816406 12.675781 0 17.25 0 Z M 17.25 0 " clip-rule="nonzero"/></clipPath></defs><g clip-path="url(#11b7f15e08)"><rect x="-37.5" width="450" fill="#141414" y="-37.499999" height="449.999989" fill-opacity="1"/></g><path stroke-linecap="butt" transform="matrix(0.749976, -0.0059723, 0.0059723, 0.749976, 68.282321, 247.615237)" fill="none" stroke-linejoin="miter" d="M 0.000201683 32.498428 L 328.849172 32.502492 " stroke="#ff7f50" stroke-width="65" stroke-opacity="1" stroke-miterlimit="4"/><g fill="#ff7f50" fill-opacity="1"><g transform="translate(56.385396, 214.776394)"><g><path d="M 38.3125 -94.984375 L 0.703125 -94.984375 L 0.703125 -122.453125 L 110.390625 -122.453125 L 110.390625 -94.984375 L 72.953125 -94.984375 L 72.953125 0 L 38.3125 0 Z M 38.3125 -94.984375 "/></g></g></g><g fill="#ff7f50" fill-opacity="1"><g transform="translate(182.691704, 214.776394)"><g><path d="M 12.25 -122.453125 L 70.15625 -122.453125 C 83.5625 -122.453125 95.453125 -119.941406 105.828125 -114.921875 C 116.210938 -109.910156 124.257812 -102.796875 129.96875 -93.578125 C 135.6875 -84.367188 138.546875 -73.585938 138.546875 -61.234375 C 138.546875 -48.867188 135.6875 -38.078125 129.96875 -28.859375 C 124.257812 -19.648438 116.210938 -12.535156 105.828125 -7.515625 C 95.453125 -2.503906 83.5625 0 70.15625 0 L 12.25 0 Z M 68.75 -27.640625 C 79.25 -27.640625 87.675781 -30.613281 94.03125 -36.5625 C 100.382812 -42.507812 103.5625 -50.734375 103.5625 -61.234375 C 103.5625 -71.722656 100.382812 -79.941406 94.03125 -85.890625 C 87.675781 -91.835938 79.25 -94.8125 68.75 -94.8125 L 46.890625 -94.8125 L 46.890625 -27.640625 Z M 68.75 -27.640625 "/></g></g></g></svg>